SplineFontDB: 3.0
FontName: JupiterAce2
FullName: Jupiter Ace2
FamilyName: Jupiter Ace2
Weight: Regular
Copyright: www.jupiter-ace.co.uk
UComments: "Jupiter Ace Computer Font www.jupiter-ace.co.uk"
Version: 1
ItalicAngle: 0
UnderlinePosition: 0
UnderlineWidth: 0
Ascent: 1024
Descent: 0
InvalidEm: 0
LayerCount: 2
Layer: 0 0 "Back" 1
Layer: 1 0 "Fore" 0
XUID: [1021 557 -829236477 1011]
FSType: 0
OS2Version: 0
OS2_WeightWidthSlopeOnly: 0
OS2_UseTypoMetrics: 0
CreationTime: 1451088460
ModificationTime: 1451759523
PfmFamily: 17
TTFWeight: 400
TTFWidth: 5
LineGap: 94
VLineGap: 94
OS2TypoAscent: 0
OS2TypoAOffset: 1
OS2TypoDescent: 0
OS2TypoDOffset: 1
OS2TypoLinegap: 94
OS2WinAscent: 0
OS2WinAOffset: 1
OS2WinDescent: 0
OS2WinDOffset: 1
HheadAscent: 0
HheadAOffset: 1
HheadDescent: 0
HheadDOffset: 1
OS2Vendor: 'PfEd'
MarkAttachClasses: 1
DEI: 91125
LangName: 1033
Encoding: ISO8859-1
UnicodeInterp: none
NameList: AGL For New Fonts
DisplaySize: -48
AntiAlias: 1
FitToEm: 0
WinInfo: 0 16 10
BeginPrivate: 1
BlueValues 25 [128 128 768 768 896 896]
EndPrivate
Grid
0 1048.57617188 m 29
NamedP: "Top"
 1048.57617188 1048.57617188 l 1053
-1048.57617188 925.696289062 m 1024
  Named: "Top"
-1048.57617188 1028.09570312 m 1024
  Named: "Top"
EndSplineSet
TeXData: 1 0 0 346030 173015 115343 768000 1048576 115343 783286 444596 497025 792723 393216 433062 380633 303038 157286 324010 404750 52429 2506097 1059062 262144
BeginChars: 303 303

StartChar: a
Encoding: 97 97 0
Width: 1024
VWidth: 1048
Flags: HW
LayerCount: 2
Fore
SplineSet
256 768 m 1
 640 768 l 1
 640 768 768 768 768 640 c 3
 768 490 768 256 768 256 c 1
 896 256 l 1
 896 128 l 1
 256 128 l 1
 256 128 128 128 128 256 c 3
 128 306 128 334 128 384 c 3
 128 512 256 512 256 512 c 1
 640 512 l 1
 640 640 l 1
 256 640 l 1
 256 768 l 1
256 256 m 1
 640 256 l 1
 640 384 l 1
 256 384 l 1
 256 256 l 1
EndSplineSet
Validated: 1
EndChar

StartChar: b
Encoding: 98 98 1
Width: 1024
VWidth: 1048
Flags: HW
LayerCount: 2
Fore
SplineSet
256 896 m 1
 384 896 l 1
 384 640 l 1
 768 640 l 1
 768 640 896 640 896 512 c 3
 896 412 896 356 896 256 c 3
 896 128 768 128 768 128 c 1
 597.333333333 128 426.666666667 128 256 128 c 1
 256 896 l 1
768 512 m 1
 384 512 l 1
 384 256 l 1
 768 256 l 1
 768 512 l 1
EndSplineSet
Validated: 1
EndChar

StartChar: c
Encoding: 99 99 2
Width: 1024
VWidth: 1048
Flags: HW
LayerCount: 2
Fore
SplineSet
384 256 m 1
 768 256 l 1
 768 128 l 1
 384 128 l 1
 384 128 256 128 256 256 c 11
 256 406 256 490 256 640 c 19
 256 768 384 768 384 768 c 1
 768 768 l 1
 768 640 l 1
 384 640 l 1
 384 256 l 1
EndSplineSet
Validated: 1
EndChar

StartChar: d
Encoding: 100 100 3
Width: 1024
VWidth: 1048
Flags: HW
LayerCount: 2
Fore
SplineSet
640 896 m 1
 768 896 l 1
 768 256 l 1
 896 256 l 1
 896 128 l 1
 256 128 l 1
 256 128 128 128 128 256 c 11
 128 356 128 412 128 512 c 19
 128 640 256 640 256 640 c 1
 640 640 l 1
 640 896 l 1
256 256 m 1
 640 256 l 1
 640 512 l 1
 256 512 l 1
 256 256 l 1
EndSplineSet
Validated: 1
EndChar

StartChar: e
Encoding: 101 101 4
Width: 1024
VWidth: 1048
Flags: HW
LayerCount: 2
Fore
SplineSet
256 256 m 1
 768 256 l 1
 768 128 l 1
 256 128 l 1
 256 128 128 128 128 256 c 11
 128 406 128 490 128 640 c 19
 128 768 256 768 256 768 c 1
 640 768 l 1
 640 768 768 768 768 640 c 11
 768 590 768 562 768 512 c 19
 768 384 640 384 640 384 c 1
 256 384 l 1
 256 256 l 1
640 512 m 1
 640 640 l 1
 256 640 l 1
 256 512 l 1
 640 512 l 1
EndSplineSet
Validated: 1
EndChar

StartChar: f
Encoding: 102 102 5
Width: 1024
VWidth: 1048
Flags: HW
LayerCount: 2
Fore
SplineSet
512 768 m 1
 512 640 l 1
 640 640 l 1
 640 512 l 1
 512 512 l 1
 512 128 l 1
 384 128 l 1
 384 128 384 518 384 768 c 19
 384 896 512 896 512 896 c 1
 768 896 l 1
 768 768 l 1
 512 768 l 1
EndSplineSet
Validated: 1
EndChar

StartChar: g
Encoding: 103 103 6
Width: 1024
VWidth: 1048
Flags: HW
LayerCount: 2
Fore
SplineSet
640 0 m 1
 256 0 l 1
 256 128 l 1
 640 128 l 1
 640 256 l 1
 256 256 l 1
 256 256 128 256 128 384 c 11
 128 484 128 540 128 640 c 19
 128 768 256 768 256 768 c 1
 256 768 768 768 768 768 c 1
 768 768 768 378 768 128 c 19
 768 0 640 0 640 0 c 1
256 384 m 1
 640 384 l 1
 640 640 l 1
 256 640 l 1
 256 384 l 1
EndSplineSet
Validated: 1
EndChar

StartChar: h
Encoding: 104 104 7
Width: 1024
VWidth: 1048
Flags: HW
LayerCount: 2
Fore
SplineSet
128 896 m 1
 256 896 l 1
 256 640 l 1
 640 640 l 1
 640 640 768 640 768 512 c 11
 768 362 768 128 768 128 c 1
 640 128 l 1
 640 512 l 1
 256 512 l 1
 256 128 l 1
 128 128 l 1
 128 896 l 1
EndSplineSet
Validated: 1
EndChar

StartChar: i
Encoding: 105 105 8
Width: 1024
VWidth: 1048
Flags: HW
LayerCount: 2
Fore
SplineSet
256 640 m 1
 341.333333333 640 426.666666667 640 512 640 c 1
 512 256 l 1
 640 256 l 1
 640 128 l 1
 256 128 l 1
 256 256 l 1
 384 256 l 1
 384 512 l 1
 256 512 l 1
 256 640 l 1
384 896 m 1
 512 896 l 1
 512 768 l 1
 384 768 l 1
 384 896 l 1
EndSplineSet
Validated: 1
EndChar

StartChar: j
Encoding: 106 106 9
Width: 1024
VWidth: 1048
Flags: HW
LayerCount: 2
Fore
SplineSet
640 896 m 1
 768 896 l 1
 768 768 l 1
 640 768 l 1
 640 896 l 1
256 128 m 11
 256 178 256 256 256 256 c 1
 384 256 l 1
 384 128 l 1
 640 128 l 1
 640 640 l 1
 768 640 l 1
 768 640 768 328 768 128 c 19
 768 0 640 0 640 0 c 1
 384 0 l 1
 384 0 256 0 256 128 c 11
EndSplineSet
Validated: 1
EndChar

StartChar: k
Encoding: 107 107 10
Width: 1024
VWidth: 1048
Flags: HW
LayerCount: 2
Fore
SplineSet
256 896 m 1
 384 896 l 1
 384 640 l 1
 448 640 l 1
 512 768 l 1
 640 768 l 1
 512 512 l 1
 768 128 l 1
 640 128 l 1
 448 384 l 1
 384 384 l 1
 384 128 l 1
 256 128 l 1
 256 896 l 1
EndSplineSet
Validated: 1
EndChar

StartChar: l
Encoding: 108 108 11
Width: 1024
VWidth: 1048
Flags: HW
LayerCount: 2
Fore
SplineSet
384 896 m 1
 512 896 l 1
 512 256 l 1
 768 256 l 1
 768 128 l 1
 512 128 l 1
 512 128 384 128 384 256 c 3
 384 506 384 896 384 896 c 1
EndSplineSet
Validated: 1
EndChar

StartChar: m
Encoding: 109 109 12
Width: 1024
VWidth: 1048
Flags: HW
LayerCount: 2
Fore
SplineSet
384 640 m 1
 256 640 l 1
 256 128 l 1
 128 128 l 1
 128 768 l 1
 213.333333333 768 311.102812126 768 384 768 c 3
 448 768 448 704 448 704 c 1
 448 704 448 768 512 768 c 11
 562 768 590 768 640 768 c 19
 768 768 768 640 768 640 c 1
 768 128 l 1
 640 128 l 1
 640 640 l 1
 512 640 l 1
 512 128 l 1
 384 128 l 1
 384 640 l 1
EndSplineSet
Validated: 1
EndChar

StartChar: n
Encoding: 110 110 13
Width: 1024
VWidth: 1048
Flags: HW
LayerCount: 2
Fore
SplineSet
128 768 m 1
 298.666666667 768 512 768 640 768 c 3
 768 768 768 640 768 640 c 1
 768 128 l 1
 640 128 l 1
 640 640 l 1
 256 640 l 1
 256 128 l 1
 128 128 l 1
 128 768 l 1
EndSplineSet
Validated: 1
EndChar

StartChar: o
Encoding: 111 111 14
Width: 1024
VWidth: 1048
Flags: HW
LayerCount: 2
Fore
SplineSet
128 256 m 1
 128 640 l 1
 128 640 128 768 256 768 c 3
 406 768 490 768 640 768 c 7
 768 768 768 640 768 640 c 1
 768 256 l 1
 768 256 768 128 640 128 c 3
 490 128 406 128 256 128 c 3
 128 128 128 256 128 256 c 1
256 256 m 1
 640 256 l 1
 640 640 l 1
 256 640 l 1
 256 256 l 1
EndSplineSet
Validated: 1
EndChar

StartChar: p
Encoding: 112 112 15
Width: 1024
VWidth: 1048
Flags: HW
LayerCount: 2
Fore
SplineSet
128 768 m 1
 298.666666667 768 469.333333333 768 640 768 c 1
 640 768 768 768 768 640 c 11
 768 540 768 484 768 384 c 19
 768 256 640 256 640 256 c 1
 256 256 l 1
 256 0 l 1
 128 0 l 1
 128 768 l 1
640 640 m 1
 256 640 l 1
 256 384 l 1
 640 384 l 1
 640 640 l 1
EndSplineSet
Validated: 1
EndChar

StartChar: q
Encoding: 113 113 16
Width: 1024
VWidth: 1048
Flags: HW
LayerCount: 2
Fore
SplineSet
128 384 m 11
 128 484 128 540 128 640 c 19
 128 768 256 768 256 768 c 1
 426.666666667 768 597.333333333 768 768 768 c 1
 768 128 l 1
 896 128 l 1
 896 0 l 1
 810.666666667 0 725.333333333 -0 640 0 c 1
 640 256 l 1
 256 256 l 1
 256 256 128 256 128 384 c 11
256 384 m 1
 640 384 l 1
 640 640 l 1
 256 640 l 1
 256 384 l 1
EndSplineSet
Validated: 1
EndChar

StartChar: r
Encoding: 114 114 17
Width: 1024
VWidth: 1048
Flags: HW
LayerCount: 2
Fore
SplineSet
384 640 m 1
 384 128 l 1
 256 128 l 1
 256 128 256 440 256 640 c 19
 256 768 384 768 384 768 c 1
 768 768 l 1
 768 640 l 1
 384 640 l 1
EndSplineSet
Validated: 1
EndChar

StartChar: s
Encoding: 115 115 18
Width: 1024
VWidth: 1048
Flags: HW
LayerCount: 2
Fore
SplineSet
640 128 m 1
 128 128 l 1
 128 256 l 1
 640 256 l 1
 640 384 l 1
 256 384 l 1
 256 384 128 384 128 512 c 11
 128 562 128 590 128 640 c 19
 128 768 256 768 256 768 c 1
 640 768 l 1
 640 640 l 1
 256 640 l 1
 256 512 l 1
 640 512 l 1
 640 512 768 512 768 384 c 11
 768 334 768 306 768 256 c 19
 768 128 640 128 640 128 c 1
EndSplineSet
Validated: 1
EndChar

StartChar: t
Encoding: 116 116 19
Width: 1024
VWidth: 1048
Flags: HW
LayerCount: 2
Fore
SplineSet
384 896 m 1
 512 896 l 1
 512 768 l 1
 640 768 l 1
 640 640 l 1
 512 640 l 1
 512 256 l 1
 768 256 l 1
 768 128 l 1
 512 128 l 1
 512 128 384 128 384 256 c 11
 384 406 384 640 384 640 c 1
 256 640 l 1
 256 768 l 1
 384 768 l 1
 384 896 l 1
EndSplineSet
Validated: 1
EndChar

StartChar: u
Encoding: 117 117 20
Width: 1024
VWidth: 1048
Flags: HW
LayerCount: 2
Fore
SplineSet
128 768 m 1
 256 768 l 1
 256 256 l 1
 640 256 l 1
 640 768 l 1
 768 768 l 1
 768 128 l 1
 597.333333333 128 426.666666667 128 256 128 c 1
 256 128 128 128 128 256 c 11
 128 456 128 768 128 768 c 1
EndSplineSet
Validated: 1
EndChar

StartChar: v
Encoding: 118 118 21
Width: 1024
VWidth: 1048
Flags: HW
LayerCount: 2
Fore
SplineSet
640 768 m 1
 768 768 l 1
 512 128 l 1
 384 128 l 1
 128 768 l 1
 256 768 l 1
 448 256 l 1
 640 768 l 1
EndSplineSet
Validated: 1
EndChar

StartChar: w
Encoding: 119 119 22
Width: 1024
VWidth: 1048
Flags: HW
LayerCount: 2
Fore
SplineSet
128 768 m 1
 256 768 l 1
 256 256 l 1
 384 256 l 1
 384 640 l 1
 512 640 l 1
 513 255 l 1
 640 256 l 1
 640 768 l 1
 768 768 l 1
 768 256 l 1
 768 256 768 128 640 128 c 2
 512 128 l 2
 448 128 448 192 448 192 c 1
 448 192 448 128 384 128 c 2
 256 128 l 2
 128 128 128 256 128 256 c 1
 128 768 l 1
EndSplineSet
Validated: 1
EndChar

StartChar: x
Encoding: 120 120 23
Width: 1024
VWidth: 1048
Flags: HW
LayerCount: 2
Fore
SplineSet
768 128 m 1
 640 128 l 1
 448 384 l 1
 256 128 l 1
 128 128 l 1
 384 448 l 1
 128 768 l 1
 256 768 l 1
 447 513 l 1
 640 768 l 1
 768 768 l 1
 512 448 l 1
 597.333333333 341.333333333 682.666666667 234.666666667 768 128 c 1
EndSplineSet
Validated: 1
EndChar

StartChar: y
Encoding: 121 121 24
Width: 1024
VWidth: 1048
Flags: HW
LayerCount: 2
Fore
SplineSet
128 768 m 1
 256 768 l 1
 256 384 l 1
 640 384 l 1
 640 768 l 1
 768 768 l 1
 768 768 768 378 768 128 c 19
 768 0 640 0 640 0 c 1
 256 0 l 1
 256 128 l 1
 640 128 l 1
 640 256 l 1
 256 256 l 1
 256 256 128 256 128 384 c 11
 128 534 128 768 128 768 c 1
EndSplineSet
Validated: 1
EndChar

StartChar: z
Encoding: 122 122 25
Width: 1024
VWidth: 1048
Flags: HW
LayerCount: 2
Fore
SplineSet
128 768 m 1
 768 768 l 1
 768 640 l 1
 320 256 l 1
 768 256 l 1
 768 128 l 1
 128 128 l 1
 128 256 l 1
 586 640 l 1
 128 640 l 1
 128 768 l 1
EndSplineSet
Validated: 1
EndChar

StartChar: A
Encoding: 65 65 26
Width: 1024
VWidth: 1048
Flags: HW
LayerCount: 2
Fore
SplineSet
256 768 m 1
 256 512 l 1
 768 512 l 1
 768 768 l 1
 256 768 l 1
896 768 m 3
 896 518 896 128 896 128 c 1
 768 128 l 1
 768 384 l 1
 256 384 l 1
 256 128 l 1
 128 128 l 1
 128 128 128 518 128 768 c 3
 128 896 256 896 256 896 c 1
 768 896 l 1
 768 896 896 896 896 768 c 3
EndSplineSet
Validated: 1
EndChar

StartChar: B
Encoding: 66 66 27
Width: 1024
VWidth: 1048
Flags: HW
LayerCount: 2
Fore
SplineSet
128 896 m 1
 704 896 l 1
 704 896 832 896 832 768 c 1
 832 768 832 640 832 640 c 1
 832 576 l 1
 832 576 898 576 898 512 c 11
 898 412 896 256 896 256 c 2
 896 128 768 128 768 128 c 1
 768 128 128 128 128 128 c 1
 128 896 l 1
768 512 m 1
 256 512 l 1
 254 258 l 1
 768 256 l 1
 768 512 l 1
704 640 m 1
 704 768 l 1
 256 768 l 1
 256 640 l 1
 704 640 l 1
EndSplineSet
Validated: 1
EndChar

StartChar: C
Encoding: 67 67 28
Width: 1024
VWidth: 1048
Flags: HW
LayerCount: 2
Fore
SplineSet
768 256 m 1
 768 384 l 1
 896 384 l 1
 896 384 896 345 896 256 c 3
 896 128 768 128 768 128 c 1
 256 128 l 1
 256 128 128 128 128 256 c 3
 128 456 128 568 128 768 c 3
 128 896 256 896 256 896 c 1
 768 896 l 1
 768 896 896 896 896 768 c 3
 896 718 896 640 896 640 c 1
 768 640 l 1
 768 768 l 1
 256 768 l 1
 256 256 l 1
 768 256 l 1
EndSplineSet
Validated: 1
EndChar

StartChar: D
Encoding: 68 68 29
Width: 1024
VWidth: 1048
Flags: HW
LayerCount: 2
Fore
SplineSet
128 896 m 1
 298.666666667 896 540 896 640 896 c 1
 896 896 896 640 896 640 c 1
 896 384 l 1
 896 384 896 128 640 128 c 1
 540 128 298.666666667 128 128 128 c 1
 128 896 l 1
768 384 m 1
 768 640 l 1
 768 640 768 768 640 768 c 3
 540 768 256 768 256 768 c 1
 256 256 l 1
 256 256 540 256 640 256 c 3
 768 256 768 384 768 384 c 1
EndSplineSet
Validated: 1
EndChar

StartChar: E
Encoding: 69 69 30
Width: 1024
VWidth: 1048
Flags: HW
LayerCount: 2
Fore
SplineSet
128 896 m 1
 256 896 l 1
 768 896 l 1
 768 768 l 1
 256 768 l 1
 256 640 l 1
 640 640 l 1
 640 512 l 1
 256 512 l 1
 256 256 l 1
 768 256 l 1
 768 128 l 1
 256 128 l 1
 128 128 l 1
 128 896 l 1
EndSplineSet
Validated: 1
EndChar

StartChar: F
Encoding: 70 70 31
Width: 1024
VWidth: 1048
Flags: HW
LayerCount: 2
Fore
SplineSet
128 896 m 1
 256 896 l 1
 896 896 l 1
 896 768 l 1
 256 768 l 1
 256 640 l 1
 768 640 l 1
 768 512 l 1
 256 512 l 1
 256 128 l 1
 128 128 l 1
 128 896 l 1
EndSplineSet
Validated: 1
EndChar

StartChar: G
Encoding: 71 71 32
Width: 1024
VWidth: 1048
Flags: HW
LayerCount: 2
Fore
SplineSet
768 256 m 1
 768 384 l 1
 512 384 l 1
 512 512 l 1
 640 512 768 512 896 512 c 1
 896 512 896 356 896 242 c 3
 896 128 768 128 768 128 c 1
 256 128 l 1
 256 128 128 128 128 256 c 3
 128 456 128 568 128 768 c 3
 128 896 256 896 256 896 c 1
 768 896 l 1
 768 896 890 896 890 768 c 7
 890 718 896 640 896 640 c 1
 768 640 l 1
 768 768 l 1
 256 768 l 1
 256 256 l 1
 768 256 l 1
EndSplineSet
Validated: 1
EndChar

StartChar: H
Encoding: 72 72 33
Width: 1024
VWidth: 1048
Flags: HW
LayerCount: 2
Fore
SplineSet
128 896 m 1
 256 896 l 1
 256 640 l 1
 768 640 l 1
 768 896 l 1
 896 896 l 1
 896 128 l 1
 768 128 l 1
 768 512 l 1
 256 512 l 1
 256 128 l 1
 128 128 l 1
 128 896 l 1
EndSplineSet
Validated: 1
EndChar

StartChar: I
Encoding: 73 73 34
Width: 1024
VWidth: 1048
Flags: HW
LayerCount: 2
Fore
SplineSet
256 896 m 1
 896 896 l 1
 896 768 l 1
 640 768 l 1
 640 256 l 1
 896 256 l 1
 896 128 l 1
 256 128 l 1
 256 256 l 1
 512 256 l 1
 512 768 l 1
 256 768 l 1
 256 896 l 1
EndSplineSet
Validated: 1
EndChar

StartChar: J
Encoding: 74 74 35
Width: 1024
VWidth: 1048
Flags: HW
LayerCount: 2
Fore
SplineSet
128 256 m 3
 128 356 128 512 128 512 c 1
 256 512 l 1
 256 256 l 1
 768 256 l 1
 768 896 l 1
 896 896 l 1
 896 896 896 506 896 256 c 3
 896 128 768 128 768 128 c 1
 256 128 l 1
 256 128 128 128 128 256 c 3
EndSplineSet
Validated: 1
EndChar

StartChar: K
Encoding: 75 75 36
Width: 1024
VWidth: 1048
Flags: HW
LayerCount: 2
Fore
SplineSet
128 896 m 1
 256 896 l 1
 256 640 l 1
 408 640 l 1
 640 896 l 1
 768 896 l 1
 510.950445633 579.171479501 l 1
 510.986723839 576.849674281 l 1
 896 128 l 1
 768 128 l 1
 412 512 l 1
 256 512 l 1
 256 128 l 1
 128 128 l 1
 128 896 l 1
EndSplineSet
Validated: 1
EndChar

StartChar: L
Encoding: 76 76 37
Width: 1024
VWidth: 1048
Flags: HW
LayerCount: 2
Fore
SplineSet
128 896 m 1
 256 896 l 1
 256 256 l 1
 896 256 l 1
 896 128 l 1
 256 128 l 1
 128 128 l 1
 128 896 l 1
EndSplineSet
Validated: 1
EndChar

StartChar: M
Encoding: 77 77 38
Width: 1024
VWidth: 1048
Flags: HW
LayerCount: 2
Fore
SplineSet
128 896 m 1
 256 896 l 1
 256 832 l 5
 256 832 448 640 448 640 c 1
 448 640 576 640 576 640 c 0
 768 832 l 1
 768 896 l 1
 896 896 l 1
 896 128 l 1
 768 128 l 1
 768 640 l 1
 640 512 l 1
 384 512 l 1
 256 640 l 5
 256 128 l 1
 128 128 l 1
 128 896 l 1
EndSplineSet
Validated: 1
EndChar

StartChar: N
Encoding: 78 78 39
Width: 1024
VWidth: 1048
Flags: HW
LayerCount: 2
Fore
SplineSet
128 896 m 1
 256 896 l 1
 256 768 l 1
 768 384 l 1
 768 896 l 1
 896 896 l 1
 896 128 l 1
 768 128 l 1
 768 256 l 1
 256 640 l 1
 256 128 l 1
 128 128 l 1
 128 896 l 1
EndSplineSet
Validated: 1
EndChar

StartChar: O
Encoding: 79 79 40
Width: 1024
VWidth: 1048
Flags: HW
LayerCount: 2
Fore
SplineSet
128 256 m 3
 128 456 128 568 128 768 c 3
 128 896 256 896 256 896 c 1
 768 896 l 1
 768 896 896 896 896 768 c 7
 896 568 896 456 896 292 c 3
 896 128 768 128 768 128 c 1
 256 128 l 1
 256 128 128 128 128 256 c 3
256 256 m 1
 768 256 l 1
 768 768 l 1
 256 768 l 1
 256 256 l 1
EndSplineSet
Validated: 1
EndChar

StartChar: P
Encoding: 80 80 41
Width: 1024
VWidth: 1048
Flags: HW
LayerCount: 2
Fore
SplineSet
128 896 m 1
 341.333333333 896 668 896 768 896 c 3
 896 896 896 768 896 768 c 1
 896 512 l 1
 896 512 896 384 768 384 c 3
 568 384 256 384 256 384 c 1
 256 128 l 1
 128 128 l 1
 128 896 l 1
768 768 m 1
 256 768 l 1
 256 512 l 1
 768 512 l 1
 768 768 l 1
EndSplineSet
Validated: 1
EndChar

StartChar: Q
Encoding: 81 81 42
Width: 1024
VWidth: 1048
Flags: HW
LayerCount: 2
Fore
SplineSet
128 256 m 11
 128 456 128 568 128 768 c 19
 128 896 256 896 256 896 c 1
 768 896 l 1
 768 896 896 896 896 768 c 11
 896 568 896 456 896 256 c 19
 896 128 768 128 768 128 c 1
 256 128 l 1
 256 128 128 128 128 256 c 11
256 256 m 1
 512 256 l 1
 384 512 l 1
 512 512 l 1
 640 256 l 1
 768 256 l 1
 768 768 l 1
 256 768 l 1
 256 256 l 1
EndSplineSet
Validated: 1
EndChar

StartChar: R
Encoding: 82 82 43
Width: 1024
VWidth: 1048
Flags: HW
LayerCount: 2
Fore
SplineSet
128 896 m 1
 341.333333333 896 554.666666667 896 768 896 c 1
 768 896 896 896 896 768 c 11
 896 668 896 612 896 512 c 19
 896 384 768 384 768 384 c 1
 896 128 l 1
 768 128 l 1
 640 384 l 1
 256 384 l 1
 256 128 l 1
 128 128 l 1
 128 896 l 1
768 768 m 1
 256 768 l 1
 256 512 l 1
 768 512 l 1
 768 768 l 1
EndSplineSet
Validated: 1
EndChar

StartChar: S
Encoding: 83 83 44
Width: 1024
VWidth: 1048
Flags: HW
LayerCount: 2
Fore
SplineSet
128 256 m 11
 128 306 128 384 128 384 c 1
 256 384 l 1
 256 256 l 1
 768 256 l 1
 768 512 l 1
 256 512 l 1
 256 512 128 512 128 640 c 11
 128 690 128 718 128 768 c 19
 128 896 256 896 256 896 c 1
 768 896 l 1
 768 768 l 1
 256 768 l 1
 256 640 l 1
 768 640 l 1
 768 640 896 640 896 512 c 11
 896 412 896 356 896 256 c 19
 896 128 768 128 768 128 c 1
 256 128 l 1
 256 128 128 128 128 256 c 11
EndSplineSet
Validated: 1
EndChar

StartChar: T
Encoding: 84 84 45
Width: 1024
VWidth: 1048
Flags: HW
LayerCount: 2
Fore
SplineSet
0 896 m 1
 896 896 l 1
 896 768 l 1
 512 768 l 1
 512 128 l 1
 384 128 l 1
 384 768 l 1
 0 768 l 1
 0 896 l 1
EndSplineSet
Validated: 1
EndChar

StartChar: U
Encoding: 85 85 46
Width: 1024
VWidth: 1048
Flags: HW
LayerCount: 2
Fore
SplineSet
128 896 m 1
 256 896 l 1
 256 256 l 1
 768 256 l 1
 768 896 l 1
 896 896 l 1
 896 896 896 128 896 128 c 1
 256 128 l 1
 256 128 128 128 128 256 c 3
 128 506 128 896 128 896 c 1
EndSplineSet
Validated: 1
EndChar

StartChar: V
Encoding: 86 86 47
Width: 1024
VWidth: 1048
Flags: HW
LayerCount: 2
Fore
SplineSet
768 384 m 1
 768 896 l 1
 896 896 l 1
 896 384 l 1
 640 128 l 1
 384 128 l 1
 128 384 l 1
 128 896 l 1
 256 896 l 1
 256 384 l 1
 384 256 l 1
 640 256 l 1
 768 384 l 1
EndSplineSet
Validated: 1
EndChar

StartChar: W
Encoding: 87 87 48
Width: 1024
VWidth: 1048
Flags: HW
LayerCount: 2
Fore
SplineSet
128 896 m 1
 256 896 l 1
 256 256 l 1
 384 257 l 1
 384 384 l 1
 640 384 l 1
 639 257 l 1
 768 257 l 1
 768 896 l 1
 896 896 l 1
 896 256 l 1
 896 256 896 128 768 128 c 0
 718 128 690 128 640 128 c 0
 514 128 513 252 513 256 c 1
 513 256 512 128 384 128 c 0
 334 128 306 128 256 128 c 0
 128 128 128 256 128 256 c 1
 128 896 l 1
EndSplineSet
Validated: 1
EndChar

StartChar: X
Encoding: 88 88 49
Width: 1024
VWidth: 1048
Flags: HW
LayerCount: 2
Fore
SplineSet
128 896 m 1
 256 896 l 1
 448 640 l 1
 576 640 l 1
 768 896 l 1
 896 896 l 1
 640 576 l 1
 640 448 l 1
 896 128 l 1
 768 128 l 1
 576 384 l 1
 448 384 l 1
 256 128 l 1
 128 128 l 1
 384 448 l 1
 384 576 l 5
 128 896 l 1
EndSplineSet
Validated: 1
EndChar

StartChar: Y
Encoding: 89 89 50
Width: 1024
VWidth: 1048
Flags: HW
LayerCount: 2
Fore
SplineSet
448 512 m 1
 768 896 l 1
 896 896 l 1
 512 416 l 1
 512 320 512 224 512 128 c 1
 384 128 l 1
 384 224 384 320 384 416 c 1
 0 896 l 1
 128 896 l 1
 448 512 l 1
EndSplineSet
Validated: 1
EndChar

StartChar: Z
Encoding: 90 90 51
Width: 1024
VWidth: 1048
Flags: HW
LayerCount: 2
Fore
SplineSet
128 896 m 1
 896 896 l 1
 896 768 l 1
 320 256 l 1
 896 256 l 1
 896 128 l 1
 128 128 l 1
 128 256 l 1
 704 768 l 5
 128 768 l 1
 128 896 l 1
EndSplineSet
Validated: 1
EndChar

StartChar: zero
Encoding: 48 48 52
Width: 1024
VWidth: 1048
Flags: HW
LayerCount: 2
Fore
SplineSet
767.6 256 m 1
 766 768 l 1
 384 256 l 1
 767.6 256 l 1
768 128 m 1
 256 128 l 1
 256 128 128 128 128 256 c 11
 128 456 128 568 128 768 c 19
 128 896 256 896 256 896 c 1
 768 896 l 1
 768 896 896 896 896 768 c 15
 896 568 896 456 896 256 c 19
 896 128 768 128 768 128 c 1
640 768 m 1
 256 768 l 1
 264 264 l 1
 640 768 l 1
EndSplineSet
Validated: 1
EndChar

StartChar: one
Encoding: 49 49 53
Width: 1024
VWidth: 1048
Flags: HW
LayerCount: 2
Fore
SplineSet
512 704 m 1
 432 640 l 1
 256 640 l 1
 512 896 l 1
 640 896 l 1
 640 256 l 1
 896 256 l 1
 896 128 l 1
 256 128 l 1
 256 256 l 1
 512 256 l 1
 512 704 l 1
EndSplineSet
Validated: 1
EndChar

StartChar: two
Encoding: 50 50 54
Width: 1024
VWidth: 1048
Flags: HW
LayerCount: 2
Fore
SplineSet
256 384 m 1
 256 256 l 1
 896 256 l 1
 896 128 l 1
 128 128 l 1
 128 128 128 284 128 384 c 3
 128 512 256 512 256 512 c 1
 768 512 l 1
 768 768 l 1
 256 768 l 1
 256 640 l 1
 128 640 l 1
 128 640 128 718 128 768 c 19
 128 896 256 896 256 896 c 1
 768 896 l 1
 768 896 896 896 896 768 c 11
 896 668 896 612 896 512 c 19
 896 384 768 384 768 384 c 1
 256 384 l 1
EndSplineSet
Validated: 1
EndChar

StartChar: three
Encoding: 51 51 55
Width: 1024
VWidth: 1048
Flags: HW
LayerCount: 2
Fore
SplineSet
128 256 m 0
 128 306 128 384 128 384 c 1
 256 384 l 1
 256 256 l 1
 768 256 l 1
 767 512 l 1
 512 512 l 1
 512 640 l 1
 767 640 l 1
 768 768 l 1
 256 768 l 1
 256 640 l 1
 128 640 l 1
 128 640 128 718 128 768 c 0
 128 896 256 896 256 896 c 1
 768 896 l 1
 768 896 896 896 896 768 c 0
 896 718 896 690 896 640 c 0
 896 576 832 574 832 574 c 1
 832 574 832 574 833 574 c 0
 839 574 896 572 896 512 c 0
 896 412 896 356 896 256 c 0
 896 128 768 128 768 128 c 1
 256 128 l 1
 256 128 128 128 128 256 c 0
EndSplineSet
Validated: 1
EndChar

StartChar: four
Encoding: 52 52 56
Width: 1024
VWidth: 1048
Flags: HW
LayerCount: 2
Fore
SplineSet
128 512 m 1
 512 896 l 1
 640 896 l 1
 640 384 l 1
 896 384 l 1
 896 256 l 1
 640 256 l 1
 640 128 l 1
 512 128 l 1
 512 256 l 1
 128 256 l 1
 128 341 128 427 128 512 c 1
256 448 m 1
 256 384 l 1
 512 384 l 1
 512 704 l 1
 256 448 l 1
EndSplineSet
Validated: 1
EndChar

StartChar: five
Encoding: 53 53 57
Width: 1024
VWidth: 1048
Flags: HW
LayerCount: 2
Fore
SplineSet
128 896 m 1
 896 896 l 1
 896 768 l 1
 256 768 l 1
 256 640 l 1
 768 640 l 1
 768 640 896 640 896 512 c 11
 896 412 896 356 896 256 c 19
 896 128 768 128 768 128 c 1
 256 128 l 1
 256 128 128 128 128 256 c 15
 128 306 128 384 128 384 c 1
 256 384 l 1
 256 256 l 1
 768 256 l 1
 768 512 l 1
 128 512 l 1
 128 896 l 1
EndSplineSet
Validated: 1
EndChar

StartChar: six
Encoding: 54 54 58
Width: 1024
VWidth: 1048
Flags: HW
LayerCount: 2
Fore
SplineSet
768 256 m 1
 768 512 l 1
 256 512 l 1
 256 256 l 1
 768 256 l 1
768 128 m 1
 256 128 l 1
 256 128 128 128 128 256 c 0
 128 456 128 568 128 768 c 0
 128 896 256 896 256 896 c 1
 768 896 l 1
 768 768 l 1
 256 768 l 1
 256 640 l 1
 768 640 l 1
 768 640 896 640 896 512 c 0
 896 412 896 356 896 256 c 0
 896 128 768 128 768 128 c 1
EndSplineSet
Validated: 1
EndChar

StartChar: seven
Encoding: 55 55 59
Width: 1024
VWidth: 1048
Flags: HW
LayerCount: 2
Fore
SplineSet
128 896 m 1
 896 896 l 1
 896 811 896 725 896 640 c 1
 512 320 l 1
 512 128 l 1
 384 128 l 1
 384 384 l 1
 768 704 l 1
 768 768 l 1
 128 768 l 1
 128 896 l 1
EndSplineSet
Validated: 1
EndChar

StartChar: eight
Encoding: 56 56 60
Width: 1024
VWidth: 1048
Flags: HW
LayerCount: 2
Fore
SplineSet
256 512 m 1
 256 256 l 1
 768 256 l 1
 767 512 l 1
 256 512 l 1
704 640 m 1
 704 768 l 1
 320 768 l 1
 320 640 l 1
 704 640 l 1
128 256 m 0
 128 356 128 476 128 576 c 0
 128 640 192 640 192 640 c 1
 192 690 192 724 192 774 c 0
 192 891 299 896 317 896 c 0
 319 896 320 896 320 896 c 1
 704 896 l 1
 704 896 705 896 707 896 c 0
 725 896 832 891 832 774 c 0
 832 724 832 640 832 640 c 1
 832 640 896 640 896 576 c 0
 896 476 896 356 896 256 c 0
 896 128 768 128 768 128 c 1
 256 128 l 1
 256 128 128 128 128 256 c 0
EndSplineSet
Validated: 1
EndChar

StartChar: nine
Encoding: 57 57 61
Width: 1024
VWidth: 1048
Flags: HW
LayerCount: 2
Fore
SplineSet
256 512 m 1
 768 512 l 1
 768 768 l 1
 256 768 l 1
 256 512 l 1
768 128 m 1
 256 128 l 1
 256 256 l 1
 768 256 l 1
 768 384 l 1
 256 384 l 1
 256 384 128 384 128 512 c 0
 128 612 128 668 128 768 c 0
 128 896 256 896 256 896 c 1
 768 896 l 1
 768 896 896 896 896 768 c 0
 896 568 896 456 896 256 c 0
 896 128 768 128 768 128 c 1
EndSplineSet
Validated: 1
EndChar

StartChar: braceleft
Encoding: 123 123 62
Width: 1024
VWidth: 1048
Flags: HW
LayerCount: 2
Fore
SplineSet
512 896 m 1
 896 896 l 1
 896 768 l 1
 640 768 l 1
 640 768 640 690 640 640 c 0
 640 512 512 512 512 512 c 1
 512 512 640 512 640 384 c 0
 640 334 640 256 640 256 c 1
 896 256 l 1
 896 128 l 1
 512 128 l 1
 512 213.333333333 512 298.666666667 512 384 c 1
 256 384 l 1
 256 640 l 1
 512 640 l 1
 512 725.333333333 512 810.666666667 512 896 c 1
EndSplineSet
Validated: 1
EndChar

StartChar: bar
Encoding: 124 124 63
Width: 1024
VWidth: 1048
Flags: HW
LayerCount: 2
Fore
SplineSet
512 896 m 1
 640 896 l 1
 640 128 l 1
 512 128 l 1
 512 896 l 1
EndSplineSet
Validated: 1
EndChar

StartChar: braceright
Encoding: 125 125 64
Width: 1024
VWidth: 1048
Flags: HW
LayerCount: 2
Fore
SplineSet
128 896 m 1
 512 896 l 1
 512 640 l 1
 768 640 l 1
 768 384 l 1
 512 384 l 1
 512 128 l 1
 128 128 l 1
 128 256 l 1
 384 256 l 1
 384 256 384 334 384 384 c 0
 384 512 512 512 512 512 c 1
 512 512 384 512 384 640 c 0
 384 690 384 768 384 768 c 1
 128 768 l 1
 128 896 l 1
EndSplineSet
Validated: 1
EndChar

StartChar: asciitilde
Encoding: 126 126 65
Width: 1024
VWidth: 1048
Flags: HW
LayerCount: 2
Fore
SplineSet
448 768 m 1
 256 768 l 1
 256 640 l 1
 128 640 l 1
 128 640 128 718 128 768 c 0
 128 896 256 896 256 896 c 1
 256 896 373 896 448 896 c 3
 576 896 576 768 576 768 c 1
 768 768 l 1
 768 896 l 1
 896 896 l 1
 896 896 896 818 896 768 c 0
 896 640 768 640 768 640 c 1
 768 640 651 640 576 640 c 3
 448 640 448 768 448 768 c 1
EndSplineSet
Validated: 1
EndChar

StartChar: exclam
Encoding: 33 33 66
Width: 1024
VWidth: 1048
Flags: HW
LayerCount: 2
Fore
SplineSet
384 256 m 1
 512 256 l 1
 512 128 l 1
 384 128 l 1
 384 256 l 1
384 896 m 1
 512 896 l 1
 512 384 l 1
 384 384 l 1
 384 896 l 1
EndSplineSet
Validated: 1
EndChar

StartChar: quotedbl
Encoding: 34 34 67
Width: 1024
VWidth: 1048
Flags: HW
LayerCount: 2
Fore
SplineSet
640 896 m 1
 768 896 l 1
 768 640 l 1
 640 640 l 1
 640 896 l 1
256 896 m 1
 384 896 l 1
 384 640 l 1
 256 640 l 1
 256 896 l 1
EndSplineSet
Validated: 1
EndChar

StartChar: numbersign
Encoding: 35 35 68
Width: 1024
VWidth: 1048
Flags: HW
LayerCount: 2
Fore
SplineSet
384 640 m 1
 384 384 l 1
 640 384 l 1
 640 640 l 1
 384 640 l 1
256 896 m 1
 384 896 l 1
 384 768 l 1
 640 768 l 1
 640 896 l 1
 768 896 l 1
 768 768 l 1
 896 768 l 1
 896 640 l 1
 768 640 l 1
 768 384 l 1
 896 384 l 1
 896 256 l 1
 768 256 l 1
 768 128 l 1
 640 128 l 1
 640 256 l 1
 384 256 l 1
 384 128 l 1
 256 128 l 1
 256 256 l 1
 128 256 l 1
 128 384 l 1
 256 384 l 1
 256 640 l 1
 128 640 l 1
 128 768 l 1
 256 768 l 1
 256 896 l 1
EndSplineSet
Validated: 1
EndChar

StartChar: dollar
Encoding: 36 36 69
Width: 1024
VWidth: 1048
Flags: HW
LayerCount: 2
Fore
SplineSet
640 384 m 1
 640 256 l 1
 768 256 l 1
 768 384 l 1
 640 384 l 1
384 640 m 1
 384 512 l 1
 512 512 l 1
 512 640 l 1
 384 640 l 1
512 896 m 1
 640 896 l 1
 640 768 l 1
 896 768 l 1
 896 640 l 1
 640 640 l 1
 640 512 l 1
 896 512 l 1
 896 128 l 1
 640 128 l 1
 640 0 l 1
 512 0 l 1
 512 128 l 1
 256 128 l 1
 256 256 l 1
 512 256 l 1
 512 384 l 1
 256 384 l 1
 256 768 l 1
 512 768 l 1
 512 896 l 1
EndSplineSet
Validated: 1
EndChar

StartChar: percent
Encoding: 37 37 70
Width: 1024
VWidth: 1048
Flags: HW
LayerCount: 2
Fore
SplineSet
640 384 m 1
 896 384 l 1
 896 128 l 1
 640 128 l 1
 640 384 l 1
896 896 m 1
 256 128 l 1
 128 128 l 1
 768 896 l 1
 896 896 l 1
128 896 m 1
 384 896 l 1
 384 640 l 1
 128 640 l 1
 128 896 l 1
EndSplineSet
Validated: 1
EndChar

StartChar: ampersand
Encoding: 38 38 71
Width: 1024
VWidth: 1048
Flags: HW
LayerCount: 2
Fore
SplineSet
441.806451613 619.35483871 m 1
 512 672 l 1
 512 768 l 1
 384 768 l 1
 384 665.6 l 1
 441.806451613 619.35483871 l 1
252.935005701 349.701254276 m 1
 256 256 l 1
 597.333333333 256 l 1
 645.565217391 328.347826087 l 1
 441.806451613 491.35483871 l 1
 252.935005701 349.701254276 l 1
128 384 m 1
 359.225806452 557.419354839 l 1
 256 640 l 1
 256 640 256 718 256 768 c 3
 256 896 384 896 384 896 c 1
 512 896 l 1
 512 896 640 896 640 768 c 3
 640 718 640 640 640 640 c 1
 524.387096774 553.290322581 l 1
 701.217391304 411.826086957 l 1
 768 512 l 1
 896 512 l 1
 784.695652174 345.043478261 l 1
 896 256 l 1
 896 128 l 1
 729.043478261 261.565217391 l 1
 640 128 l 1
 256 128 l 1
 256 128 128 128 128 256 c 3
 128 306 128 384 128 384 c 1
EndSplineSet
Validated: 1
EndChar

StartChar: quotesingle
Encoding: 39 39 72
Width: 1024
VWidth: 1048
Flags: HW
LayerCount: 2
Fore
SplineSet
640 896 m 1
 512 640 l 1
 384 640 l 1
 512 896 l 1
 640 896 l 1
EndSplineSet
Validated: 1
EndChar

StartChar: parenleft
Encoding: 40 40 73
Width: 1024
VWidth: 1048
Flags: HW
LayerCount: 2
Fore
SplineSet
640 384 m 0
 640 256 768 256 768 256 c 1
 768 128 l 1
 768 128 512 128 512 384 c 0
 512 484 512 540 512 640 c 0
 512 896 768 896 768 896 c 1
 768 768 l 1
 768 768 640 768 640 640 c 0
 640 540 640 484 640 384 c 0
EndSplineSet
Validated: 1
EndChar

StartChar: parenright
Encoding: 41 41 74
Width: 1024
VWidth: 1048
Flags: HW
LayerCount: 2
Fore
SplineSet
256 896 m 1
 256 896 512 896 512 640 c 0
 512 540 512 484 512 384 c 0
 512 128 256 128 256 128 c 1
 256 256 l 1
 256 256 384 256 384 384 c 0
 384 484 384 540 384 640 c 0
 384 768 256 768 256 768 c 1
 256 896 l 1
EndSplineSet
Validated: 1
EndChar

StartChar: asterisk
Encoding: 42 42 75
Width: 1024
VWidth: 1048
Flags: HW
LayerCount: 2
Fore
SplineSet
640 640 m 1
 640 768 l 1
 768 768 l 1
 768 640 l 2
 768 512 657.174078292 512.206099388 641.768949229 512 c 2
 896 512 l 1
 896 384 l 1
 640 384 l 1
 640 384 768 384 768 256 c 2
 768 128 l 1
 640 128 l 1
 640 256 l 1
 512 256 l 1
 512 128 l 1
 384 128 l 1
 384 256 l 2
 384 384 512 384 512 384 c 1
 256 384 l 1
 256 512 l 1
 512 512 l 1
 512 512 389 512 384 640 c 1
 384 768 l 1
 512 768 l 1
 512 640 l 1
 640 640 l 1
EndSplineSet
Validated: 1
EndChar

StartChar: plus
Encoding: 43 43 76
Width: 1024
VWidth: 1048
Flags: HW
LayerCount: 2
Fore
SplineSet
512 768 m 1
 640 768 l 1
 640 512 l 1
 896 512 l 1
 896 384 l 1
 640 384 l 1
 640 128 l 1
 512 128 l 1
 512 384 l 1
 256 384 l 1
 256 512 l 1
 512 512 l 1
 512 768 l 1
EndSplineSet
Validated: 1
EndChar

StartChar: comma
Encoding: 44 44 77
Width: 1024
VWidth: 1048
Flags: HW
LayerCount: 2
Fore
SplineSet
512 0 m 1
 384 0 l 1
 384 128 l 1
 512 128 l 1
 512 384 l 1
 640 384 l 1
 640 384 640 228 640 128 c 19
 640 0 512 0 512 0 c 1
EndSplineSet
Validated: 1
EndChar

StartChar: hyphen
Encoding: 45 45 78
Width: 1024
VWidth: 1048
Flags: HW
LayerCount: 2
Fore
SplineSet
256 512 m 1
 896 512 l 1
 896 384 l 1
 256 384 l 1
 256 512 l 1
EndSplineSet
Validated: 1
EndChar

StartChar: period
Encoding: 46 46 79
Width: 1024
VWidth: 1048
Flags: HW
LayerCount: 2
Fore
SplineSet
384 384 m 1
 640 384 l 1
 640 128 l 1
 384 128 l 1
 384 384 l 1
EndSplineSet
Validated: 1
EndChar

StartChar: slash
Encoding: 47 47 80
Width: 1024
VWidth: 1048
Flags: HW
LayerCount: 2
Fore
SplineSet
768 768 m 1
 896 768 l 5
 384 128 l 1
 256 128 l 1
 768 768 l 1
EndSplineSet
Validated: 1
EndChar

StartChar: colon
Encoding: 58 58 81
Width: 1024
VWidth: 1048
Flags: HW
LayerCount: 2
Fore
SplineSet
384 640 m 1
 512 640 l 1
 512 512 l 1
 384 512 l 1
 384 640 l 1
384 256 m 1
 512 256 l 1
 512 128 l 1
 384 128 l 1
 384 256 l 1
EndSplineSet
Validated: 1
EndChar

StartChar: semicolon
Encoding: 59 59 82
Width: 1024
VWidth: 1048
Flags: HW
LayerCount: 2
Fore
SplineSet
384 384 m 1
 512 384 l 1
 512 384 512 228 512 128 c 0
 512 -0 384 0 384 0 c 1
 256 0 l 1
 256 128 l 1
 384 128 l 1
 384 384 l 1
384 768 m 1
 512 768 l 1
 512 640 l 1
 384 640 l 1
 384 768 l 1
EndSplineSet
Validated: 1
EndChar

StartChar: less
Encoding: 60 60 83
Width: 1024
VWidth: 1048
Flags: HW
LayerCount: 2
Fore
SplineSet
768 256 m 1
 768 128 l 1
 384 384 l 1
 384 512 l 1
 768 768 l 1
 768 640 l 1
 512 469.333333333 l 1
 512 426.666666667 l 1
 768 256 l 1
EndSplineSet
Validated: 1
EndChar

StartChar: equal
Encoding: 61 61 84
Width: 1024
VWidth: 1048
Flags: HW
LayerCount: 2
Fore
SplineSet
256 640 m 1
 896 640 l 1
 896 512 l 1
 256 512 l 1
 256 640 l 1
256 384 m 1
 896 384 l 1
 896 256 l 1
 256 256 l 1
 256 384 l 1
EndSplineSet
Validated: 1
EndChar

StartChar: greater
Encoding: 62 62 85
Width: 1024
VWidth: 1048
Flags: HW
LayerCount: 2
Fore
SplineSet
384 256 m 1
 640 426.666666667 l 1
 640 469.333333333 l 1
 384 640 l 1
 384 768 l 1
 768 512 l 1
 768 384 l 1
 384 128 l 1
 384 256 l 1
EndSplineSet
Validated: 1
EndChar

StartChar: question
Encoding: 63 63 86
Width: 1024
VWidth: 1048
Flags: HW
LayerCount: 2
Fore
SplineSet
512 256 m 1
 640 256 l 1
 640 128 l 1
 512 128 l 1
 512 256 l 1
768 640 m 1
 768 768 l 1
 256 768 l 1
 256 640 l 1
 128 640 l 1
 128 640 128 718 128 768 c 0
 128 896 256 896 256 896 c 1
 768 896 l 1
 768 896 896 896 896 768 c 0
 896 718 896 690 896 640 c 3
 896 512 768 512 768 512 c 1
 640 512 l 1
 640 384 l 1
 512 384 l 1
 512 384 512 462 512 512 c 3
 512 640 640 640 640 640 c 1
 768 640 l 1
EndSplineSet
Validated: 1
EndChar

StartChar: bracketleft
Encoding: 91 91 87
Width: 1024
VWidth: 1048
Flags: HW
LayerCount: 2
Fore
SplineSet
512 896 m 1
 768 896 l 1
 768 768 l 1
 640 768 l 1
 640 256 l 1
 768 256 l 1
 768 128 l 1
 512 128 l 1
 512 896 l 1
EndSplineSet
Validated: 1
EndChar

StartChar: backslash
Encoding: 92 92 88
Width: 1024
VWidth: 1048
Flags: HW
LayerCount: 2
Fore
SplineSet
128 768 m 1
 256 768 l 1
 768 128 l 1
 640 128 l 1
 128 768 l 1
EndSplineSet
Validated: 1
EndChar

StartChar: bracketright
Encoding: 93 93 89
Width: 1024
VWidth: 1048
Flags: HW
LayerCount: 2
Fore
SplineSet
256 896 m 1
 512 896 l 1
 512 128 l 1
 256 128 l 1
 256 256 l 1
 384 256 l 1
 384 768 l 1
 256 768 l 1
 256 896 l 1
EndSplineSet
Validated: 1
EndChar

StartChar: asciicircum
Encoding: 94 94 90
Width: 1024
VWidth: 1048
Flags: HW
LayerCount: 2
Fore
SplineSet
512 896 m 1
 768 512 l 1
 640 512 l 1
 512 714 l 1
 512 128 l 1
 384 128 l 1
 384 714 l 1
 256 512 l 1
 128 512 l 1
 384 896 l 1
 512 896 l 1
EndSplineSet
Validated: 1
EndChar

StartChar: underscore
Encoding: 95 95 91
Width: 1024
VWidth: 1048
Flags: HW
LayerCount: 2
Fore
SplineSet
0 128 m 1
 1024 128 l 1
 1024 0 l 1
 0 0 l 1
 0 128 l 1
EndSplineSet
Validated: 1
EndChar

StartChar: at
Encoding: 64 64 92
Width: 1024
VWidth: 1048
Flags: HW
LayerCount: 2
Fore
SplineSet
640 640 m 1
 512 640 l 1
 512 512 l 1
 640 512 l 1
 640 640 l 1
768 768 m 1
 640 768 l 1
 640 768 768 768 768 640 c 2
 768 768 l 1
256 256 m 1
 768 256 l 1
 768 128 l 1
 256 128 l 1
 256 128 128 128 128 256 c 0
 128 456 128 568 128 768 c 0
 128 896 256 896 256 896 c 1
 768 896 l 1
 768 896 896 894 896 768 c 0
 896 668 894 612 894 512 c 0
 894 384 768 384 768 384 c 1
 512 384 l 1
 512 384 384 384 384 512 c 0
 384 562 384 590 384 640 c 0
 384 768 512 768 512 768 c 1
 256 768 l 1
 256 256 l 1
EndSplineSet
Validated: 1
EndChar

StartChar: uni007F
Encoding: 127 127 93
Width: 1024
VWidth: 1048
Flags: HW
LayerCount: 2
Fore
SplineSet
0 256 m 2
 0 768 l 2
 0 1024 256 1024 256 1024 c 1
 768 1024 l 1
 768 1024 1024 1024 1024 768 c 2
 1024 256 l 2
 1024 0 768 0 768 0 c 1
 256 0 l 1
 256 0 0 0 0 256 c 2
128 768 m 0
 128 568 128 456 128 256 c 0
 128 128 256 128 256 128 c 1
 768 128 l 1
 768 128 896 128 896 256 c 0
 896 456 896 568 896 768 c 0
 896 896 768 896 768 896 c 1
 256 896 l 1
 256 896 128 896 128 768 c 0
384 384 m 1
 640 384 l 1
 640 256 l 1
 384 256 l 1
 384 256 256 256 256 384 c 0
 256 484 256 540 256 640 c 0
 256 768 384 768 384 768 c 1
 640 768 l 1
 640 640 l 1
 384 640 l 1
 384 384 l 1
EndSplineSet
Validated: 1
EndChar

StartChar: grave
Encoding: 96 96 94
Width: 1024
VWidth: 1048
Flags: HW
LayerCount: 2
Fore
SplineSet
896 768 m 3
 896 718 896 640 896 640 c 1
 768 640 l 1
 768 768 l 1
 384 768 l 1
 384 640 l 1
 640 640 l 1
 640 512 l 1
 384 512 l 1
 384 256 l 1
 896 256 l 1
 896 128 l 1
 128 128 l 1
 128 256 l 1
 256 256 l 1
 256 512 l 1
 128 512 l 1
 128 640 l 1
 256 640 l 1
 256 640 256 718 256 768 c 3
 256 896 384 896 384 896 c 1
 768 896 l 1
 768 896 896 896 896 768 c 3
EndSplineSet
Validated: 1
EndChar

StartChar: uni0001
Encoding: 1 1 95
Width: 1024
VWidth: 1048
Flags: HW
LayerCount: 2
Fore
SplineSet
512 1024 m 1
 1024 1024 l 1
 1024 512 l 1
 512 512 l 1
 512 1024 l 1
EndSplineSet
Validated: 1
EndChar

StartChar: uni0002
Encoding: 2 2 96
Width: 1024
VWidth: 1048
Flags: HW
LayerCount: 2
Fore
SplineSet
0 1024 m 1
 512 1024 l 1
 512 512 l 1
 0 512 l 1
 0 1024 l 1
EndSplineSet
Validated: 1
EndChar

StartChar: uni0003
Encoding: 3 3 97
Width: 1024
VWidth: 1048
Flags: HW
LayerCount: 2
Fore
SplineSet
0 1024 m 1
 1024 1024 l 1
 1024 512 l 1
 0 512 l 1
 0 1024 l 1
EndSplineSet
Validated: 1
EndChar

StartChar: uni0004
Encoding: 4 4 98
Width: 1024
VWidth: 1048
Flags: HW
LayerCount: 2
Fore
SplineSet
512 512 m 1
 1024 512 l 1
 1024 0 l 1
 512 0 l 1
 512 512 l 1
EndSplineSet
Validated: 1
EndChar

StartChar: uni0005
Encoding: 5 5 99
Width: 1024
VWidth: 1048
Flags: HW
LayerCount: 2
Fore
SplineSet
512 1024 m 1
 1024 1024 l 1
 1024 0 l 1
 512 0 l 1
 512 1024 l 1
EndSplineSet
Validated: 1
EndChar

StartChar: uni0006
Encoding: 6 6 100
Width: 1024
VWidth: 1048
Flags: HW
LayerCount: 2
Fore
SplineSet
0 1024 m 1
 512 1024 l 1
 512 512 l 1
 1024 512 l 1
 1024 0 l 1
 512 0 l 1
 512 512 l 1
 0 512 l 1
 0 1024 l 1
EndSplineSet
Validated: 5
EndChar

StartChar: uni0007
Encoding: 7 7 101
Width: 1024
VWidth: 1048
Flags: HW
LayerCount: 2
Fore
SplineSet
0 1024 m 1
 1024 1024 l 1
 1024 682.666666667 1024 341.333333333 1024 0 c 1
 512 0 l 1
 512 512 l 1
 0 512 l 1
 0 1024 l 1
EndSplineSet
Validated: 1
EndChar

StartChar: uni0009
Encoding: 9 9 102
Width: 1024
VWidth: 1048
Flags: HW
LayerCount: 2
Fore
SplineSet
512 1024 m 1
 1024 1024 l 1
 1024 512 l 1
 512 512 l 1
 512 1024 l 1
EndSplineSet
Validated: 1
EndChar

StartChar: uni000A
Encoding: 10 10 103
Width: 1024
VWidth: 1048
Flags: HW
LayerCount: 2
Fore
SplineSet
0 1024 m 1
 512 1024 l 1
 512 512 l 1
 0 512 l 1
 0 1024 l 1
EndSplineSet
Validated: 1
EndChar

StartChar: uni000B
Encoding: 11 11 104
Width: 1024
VWidth: 1048
Flags: HW
LayerCount: 2
Fore
SplineSet
0 1024 m 1
 1024 1024 l 1
 1024 512 l 1
 0 512 l 1
 0 1024 l 1
EndSplineSet
Validated: 1
EndChar

StartChar: uni000C
Encoding: 12 12 105
Width: 1024
VWidth: 1048
Flags: HW
LayerCount: 2
Fore
SplineSet
512 512 m 1
 1024 512 l 1
 1024 0 l 1
 512 0 l 1
 512 512 l 1
EndSplineSet
Validated: 1
EndChar

StartChar: uni000D
Encoding: 13 13 106
Width: 1024
VWidth: 1048
Flags: HW
LayerCount: 2
Fore
SplineSet
512 1024 m 1
 1024 1024 l 1
 1024 0 l 1
 512 0 l 1
 512 1024 l 1
EndSplineSet
Validated: 1
EndChar

StartChar: uni000E
Encoding: 14 14 107
Width: 1024
VWidth: 1048
Flags: HW
LayerCount: 2
Fore
SplineSet
0 1024 m 1
 512 1024 l 1
 512 512 l 1
 0 512 l 1
 0 1024 l 1
512 512 m 1
 1024 512 l 1
 1024 0 l 1
 512 0 l 1
 512 512 l 1
EndSplineSet
Validated: 5
EndChar

StartChar: uni000F
Encoding: 15 15 108
Width: 1024
VWidth: 1048
Flags: HW
LayerCount: 2
Fore
SplineSet
0 1024 m 1
 1024 1024 l 1
 1024 682.666666667 1024 341.333333333 1024 0 c 1
 512 0 l 1
 512 512 l 1
 0 512 l 1
 0 1024 l 1
EndSplineSet
Validated: 1
EndChar

StartChar: uni0011
Encoding: 17 17 109
Width: 1024
VWidth: 1048
Flags: HW
LayerCount: 2
Fore
SplineSet
512 1024 m 1
 1024 1024 l 1
 1024 512 l 1
 512 512 l 1
 512 1024 l 1
EndSplineSet
Validated: 1
EndChar

StartChar: uni0012
Encoding: 18 18 110
Width: 1024
VWidth: 1048
Flags: HW
LayerCount: 2
Fore
SplineSet
0 1024 m 1
 512 1024 l 1
 512 512 l 1
 0 512 l 1
 0 1024 l 1
EndSplineSet
Validated: 1
EndChar

StartChar: uni0013
Encoding: 19 19 111
Width: 1024
VWidth: 1048
Flags: HW
LayerCount: 2
Fore
SplineSet
0 1024 m 1
 1024 1024 l 1
 1024 512 l 1
 0 512 l 1
 0 1024 l 1
EndSplineSet
Validated: 1
EndChar

StartChar: uni0014
Encoding: 20 20 112
Width: 1024
VWidth: 1048
Flags: HW
LayerCount: 2
Fore
SplineSet
512 512 m 1
 1024 512 l 1
 1024 0 l 1
 512 0 l 1
 512 512 l 1
EndSplineSet
Validated: 1
EndChar

StartChar: uni0015
Encoding: 21 21 113
Width: 1024
VWidth: 1048
Flags: HW
LayerCount: 2
Fore
SplineSet
512 1024 m 1
 1024 1024 l 1
 1024 0 l 1
 512 0 l 1
 512 1024 l 1
EndSplineSet
Validated: 1
EndChar

StartChar: uni0016
Encoding: 22 22 114
Width: 1024
VWidth: 1048
Flags: HW
LayerCount: 2
Fore
SplineSet
0 1024 m 1
 512 1024 l 1
 512 512 l 1
 0 512 l 1
 0 1024 l 1
512 512 m 1
 1024 512 l 1
 1024 0 l 1
 512 0 l 1
 512 512 l 1
EndSplineSet
Validated: 5
EndChar

StartChar: uni0017
Encoding: 23 23 115
Width: 1024
VWidth: 1048
Flags: HW
LayerCount: 2
Fore
SplineSet
0 1024 m 1
 1024 1024 l 1
 1024 682.666666667 1024 341.333333333 1024 0 c 1
 512 0 l 1
 512 512 l 1
 0 512 l 1
 0 1024 l 1
EndSplineSet
Validated: 1
EndChar

StartChar: uni0019
Encoding: 25 25 116
Width: 1024
VWidth: 1048
Flags: HW
LayerCount: 2
Fore
SplineSet
512 1024 m 1
 1024 1024 l 1
 1024 512 l 1
 512 512 l 1
 512 1024 l 1
EndSplineSet
Validated: 1
EndChar

StartChar: uni001A
Encoding: 26 26 117
Width: 1024
VWidth: 1048
Flags: HW
LayerCount: 2
Fore
SplineSet
0 1024 m 1
 512 1024 l 1
 512 512 l 1
 0 512 l 1
 0 1024 l 1
EndSplineSet
Validated: 1
EndChar

StartChar: uni001B
Encoding: 27 27 118
Width: 1024
VWidth: 1048
Flags: HW
LayerCount: 2
Fore
SplineSet
0 1024 m 1
 1024 1024 l 1
 1024 512 l 1
 0 512 l 1
 0 1024 l 1
EndSplineSet
Validated: 1
EndChar

StartChar: uni001C
Encoding: 28 28 119
Width: 1024
VWidth: 1048
Flags: HW
LayerCount: 2
Fore
SplineSet
512 512 m 1
 1024 512 l 1
 1024 0 l 1
 512 0 l 1
 512 512 l 1
EndSplineSet
Validated: 1
EndChar

StartChar: uni001D
Encoding: 29 29 120
Width: 1024
VWidth: 1048
Flags: HW
LayerCount: 2
Fore
SplineSet
512 1024 m 1
 1024 1024 l 1
 1024 0 l 1
 512 0 l 1
 512 1024 l 1
EndSplineSet
Validated: 1
EndChar

StartChar: uni001E
Encoding: 30 30 121
Width: 1024
VWidth: 1048
Flags: HW
LayerCount: 2
Fore
SplineSet
0 1024 m 1
 512 1024 l 1
 512 512 l 1
 0 512 l 1
 0 1024 l 1
512 512 m 1
 1024 512 l 1
 1024 0 l 1
 512 0 l 1
 512 512 l 1
EndSplineSet
Validated: 5
EndChar

StartChar: uni001F
Encoding: 31 31 122
Width: 1024
VWidth: 1048
Flags: HW
LayerCount: 2
Fore
SplineSet
0 1024 m 1
 1024 1024 l 1
 1024 682.666666667 1024 341.333333333 1024 0 c 1
 512 0 l 1
 512 512 l 1
 0 512 l 1
 0 1024 l 1
EndSplineSet
Validated: 1
EndChar

StartChar: uni0080
Encoding: 128 128 123
Width: 1024
VWidth: 1048
Flags: HW
LayerCount: 2
Fore
SplineSet
0 1024 m 1
 1024 1024 l 1
 1024 0 l 1
 0 0 l 1
 0 1024 l 1
EndSplineSet
Validated: 1
EndChar

StartChar: uni0088
Encoding: 136 136 124
Width: 1024
VWidth: 1048
Flags: HW
LayerCount: 2
Fore
SplineSet
0 1024 m 1
 1024 1024 l 1
 1024 0 l 1
 0 0 l 1
 0 1024 l 1
EndSplineSet
Validated: 1
EndChar

StartChar: uni0090
Encoding: 144 144 125
Width: 1024
VWidth: 1048
Flags: HW
LayerCount: 2
Fore
SplineSet
0 1024 m 1
 1024 1024 l 1
 1024 0 l 1
 0 0 l 1
 0 1024 l 1
EndSplineSet
Validated: 1
EndChar

StartChar: uni0098
Encoding: 152 152 126
Width: 1024
VWidth: 1048
Flags: HW
LayerCount: 2
Fore
SplineSet
0 1024 m 1
 1024 1024 l 1
 1024 0 l 1
 0 0 l 1
 0 1024 l 1
EndSplineSet
Validated: 1
EndChar

StartChar: uni0081
Encoding: 129 129 127
Width: 1024
VWidth: 1048
Flags: HW
LayerCount: 2
Fore
SplineSet
0 1024 m 1
 512 1024 l 1
 512 512 l 1
 1024 512 l 1
 1024 0 l 1
 0 0 l 1
 -0 341.333333333 0 682.666666667 0 1024 c 1
EndSplineSet
Validated: 1
EndChar

StartChar: uni0089
Encoding: 137 137 128
Width: 1024
VWidth: 1048
Flags: HW
LayerCount: 2
Fore
SplineSet
0 1024 m 1
 512 1024 l 1
 512 512 l 1
 1024 512 l 1
 1024 0 l 1
 0 0 l 1
 -0 341.333333333 0 682.666666667 0 1024 c 1
EndSplineSet
Validated: 1
EndChar

StartChar: uni0091
Encoding: 145 145 129
Width: 1024
VWidth: 1048
Flags: HW
LayerCount: 2
Fore
SplineSet
0 1024 m 1
 512 1024 l 1
 512 512 l 1
 1024 512 l 1
 1024 0 l 1
 0 0 l 1
 -0 341.333333333 0 682.666666667 0 1024 c 1
EndSplineSet
Validated: 1
EndChar

StartChar: uni0099
Encoding: 153 153 130
Width: 1024
VWidth: 1048
Flags: HW
LayerCount: 2
Fore
SplineSet
0 1024 m 1
 512 1024 l 1
 512 512 l 1
 1024 512 l 1
 1024 0 l 1
 0 0 l 1
 -0 341.333333333 0 682.666666667 0 1024 c 1
EndSplineSet
Validated: 1
EndChar

StartChar: uni0082
Encoding: 130 130 131
Width: 1024
VWidth: 1048
Flags: HW
LayerCount: 2
Fore
SplineSet
512 1024 m 1
 1024 1024 l 1
 1024 682.666666667 1024 341.333333333 1024 0 c 1
 0 0 l 1
 0 512 l 1
 512 512 l 1
 512 1024 l 1
EndSplineSet
Validated: 1
EndChar

StartChar: uni008A
Encoding: 138 138 132
Width: 1024
VWidth: 1048
Flags: HW
LayerCount: 2
Fore
SplineSet
512 1024 m 1
 1024 1024 l 1
 1024 682.666666667 1024 341.333333333 1024 0 c 1
 0 0 l 1
 0 512 l 1
 512 512 l 1
 512 1024 l 1
EndSplineSet
Validated: 1
EndChar

StartChar: uni0092
Encoding: 146 146 133
Width: 1024
VWidth: 1048
Flags: HW
LayerCount: 2
Fore
SplineSet
512 1024 m 1
 1024 1024 l 1
 1024 682.666666667 1024 341.333333333 1024 0 c 1
 0 0 l 1
 0 512 l 1
 512 512 l 1
 512 1024 l 1
EndSplineSet
Validated: 1
EndChar

StartChar: uni009A
Encoding: 154 154 134
Width: 1024
VWidth: 1048
Flags: HW
LayerCount: 2
Fore
SplineSet
512 1024 m 1
 1024 1024 l 1
 1024 682.666666667 1024 341.333333333 1024 0 c 1
 0 0 l 1
 0 512 l 1
 512 512 l 1
 512 1024 l 1
EndSplineSet
Validated: 1
EndChar

StartChar: uni0083
Encoding: 131 131 135
Width: 1024
VWidth: 1048
Flags: HW
LayerCount: 2
Fore
SplineSet
0 512 m 1
 1024 512 l 1
 1024 0 l 1
 0 0 l 1
 0 512 l 1
EndSplineSet
Validated: 1
EndChar

StartChar: uni008B
Encoding: 139 139 136
Width: 1024
VWidth: 1048
Flags: HW
LayerCount: 2
Fore
SplineSet
0 512 m 1
 1024 512 l 1
 1024 0 l 1
 0 0 l 1
 0 512 l 1
EndSplineSet
Validated: 1
EndChar

StartChar: uni0093
Encoding: 147 147 137
Width: 1024
VWidth: 1048
Flags: HW
LayerCount: 2
Fore
SplineSet
0 512 m 1
 1024 512 l 1
 1024 0 l 1
 0 0 l 1
 0 512 l 1
EndSplineSet
Validated: 1
EndChar

StartChar: uni009B
Encoding: 155 155 138
Width: 1024
VWidth: 1048
Flags: HW
LayerCount: 2
Fore
SplineSet
0 512 m 1
 1024 512 l 1
 1024 0 l 1
 0 0 l 1
 0 512 l 1
EndSplineSet
Validated: 1
EndChar

StartChar: uni0084
Encoding: 132 132 139
Width: 1024
VWidth: 1048
Flags: HW
LayerCount: 2
Fore
SplineSet
0 1024 m 1
 341.333333333 1024 682.666666667 1024 1024 1024 c 1
 1024 512 l 1
 512 512 l 1
 512 0 l 1
 0 0 l 1
 0 1024 l 1
EndSplineSet
Validated: 1
EndChar

StartChar: uni008C
Encoding: 140 140 140
Width: 1024
VWidth: 1048
Flags: HW
LayerCount: 2
Fore
SplineSet
0 1024 m 1
 341.333333333 1024 682.666666667 1024 1024 1024 c 1
 1024 512 l 1
 512 512 l 1
 512 0 l 1
 0 0 l 1
 0 1024 l 1
EndSplineSet
Validated: 1
EndChar

StartChar: uni0094
Encoding: 148 148 141
Width: 1024
VWidth: 1048
Flags: HW
LayerCount: 2
Fore
SplineSet
0 1024 m 1
 341.333333333 1024 682.666666667 1024 1024 1024 c 1
 1024 512 l 1
 512 512 l 1
 512 0 l 1
 0 0 l 1
 0 1024 l 1
EndSplineSet
Validated: 1
EndChar

StartChar: uni009C
Encoding: 156 156 142
Width: 1024
VWidth: 1048
Flags: HW
LayerCount: 2
Fore
SplineSet
0 1024 m 1
 341.333333333 1024 682.666666667 1024 1024 1024 c 1
 1024 512 l 1
 512 512 l 1
 512 0 l 1
 0 0 l 1
 0 1024 l 1
EndSplineSet
Validated: 1
EndChar

StartChar: uni0085
Encoding: 133 133 143
Width: 1024
VWidth: 1048
Flags: HW
LayerCount: 2
Fore
SplineSet
0 1024 m 1
 512 1024 l 1
 512 0 l 1
 0 0 l 1
 0 1024 l 1
EndSplineSet
Validated: 1
EndChar

StartChar: uni008D
Encoding: 141 141 144
Width: 1024
VWidth: 1048
Flags: HW
LayerCount: 2
Fore
SplineSet
0 1024 m 1
 512 1024 l 1
 512 0 l 1
 0 0 l 1
 0 1024 l 1
EndSplineSet
Validated: 1
EndChar

StartChar: uni0095
Encoding: 149 149 145
Width: 1024
VWidth: 1048
Flags: HW
LayerCount: 2
Fore
SplineSet
0 1024 m 1
 512 1024 l 1
 512 0 l 1
 0 0 l 1
 0 1024 l 1
EndSplineSet
Validated: 1
EndChar

StartChar: uni009D
Encoding: 157 157 146
Width: 1024
VWidth: 1048
Flags: HW
LayerCount: 2
Fore
SplineSet
0 1024 m 1
 512 1024 l 1
 512 0 l 1
 0 0 l 1
 0 1024 l 1
EndSplineSet
Validated: 1
EndChar

StartChar: uni0086
Encoding: 134 134 147
Width: 1024
VWidth: 1048
Flags: HW
LayerCount: 2
Fore
SplineSet
512 512 m 1
 512 0 l 1
 0 0 l 1
 0 512 l 1
 512 512 l 1
512 512 m 1
 512 1024 l 1
 1024 1024 l 1
 1024 512 l 1
 512 512 l 1
EndSplineSet
Validated: 5
EndChar

StartChar: uni008E
Encoding: 142 142 148
Width: 1024
VWidth: 1048
Flags: HW
LayerCount: 2
Fore
SplineSet
512 512 m 1
 512 0 l 1
 0 0 l 1
 0 512 l 1
 512 512 l 1
512 512 m 1
 512 1024 l 1
 1024 1024 l 1
 1024 512 l 1
 512 512 l 1
EndSplineSet
Validated: 5
EndChar

StartChar: uni0096
Encoding: 150 150 149
Width: 1024
VWidth: 1048
Flags: HW
LayerCount: 2
Fore
SplineSet
512 512 m 1
 512 0 l 1
 0 0 l 1
 0 512 l 1
 512 512 l 1
512 512 m 1
 512 1024 l 1
 1024 1024 l 1
 1024 512 l 1
 512 512 l 1
EndSplineSet
Validated: 5
EndChar

StartChar: uni009E
Encoding: 158 158 150
Width: 1024
VWidth: 1048
Flags: HW
LayerCount: 2
Fore
SplineSet
512 512 m 1
 512 0 l 1
 0 0 l 1
 0 512 l 1
 512 512 l 1
512 512 m 1
 512 1024 l 1
 1024 1024 l 1
 1024 512 l 1
 512 512 l 1
EndSplineSet
Validated: 5
EndChar

StartChar: uni0087
Encoding: 135 135 151
Width: 1024
VWidth: 1048
Flags: HW
LayerCount: 2
Fore
SplineSet
0 512 m 1
 512 512 l 1
 512 0 l 1
 0 0 l 1
 0 512 l 1
EndSplineSet
Validated: 1
EndChar

StartChar: uni008F
Encoding: 143 143 152
Width: 1024
VWidth: 1048
Flags: HW
LayerCount: 2
Fore
SplineSet
0 512 m 1
 512 512 l 1
 512 0 l 1
 0 0 l 1
 0 512 l 1
EndSplineSet
Validated: 1
EndChar

StartChar: uni0097
Encoding: 151 151 153
Width: 1024
VWidth: 1048
Flags: HW
LayerCount: 2
Fore
SplineSet
0 512 m 1
 512 512 l 1
 512 0 l 1
 0 0 l 1
 0 512 l 1
EndSplineSet
Validated: 1
EndChar

StartChar: uni009F
Encoding: 159 159 154
Width: 1024
VWidth: 1048
Flags: HW
LayerCount: 2
Fore
SplineSet
0 512 m 1
 512 512 l 1
 512 0 l 1
 0 0 l 1
 0 512 l 1
EndSplineSet
Validated: 1
EndChar

StartChar: uni00A0
Encoding: 160 160 155
Width: 1024
VWidth: 1048
Flags: HW
LayerCount: 2
Fore
SplineSet
0 1024 m 1
 1024 1024 l 1
 1024 0 l 1
 0 0 l 1
 0 1024 l 1
EndSplineSet
Validated: 1
EndChar

StartChar: exclamdown
Encoding: 161 161 156
Width: 1024
VWidth: 1048
Flags: HW
LayerCount: 2
Fore
SplineSet
0 1024 m 1
 1024 1024 l 1
 1024 0 l 1
 0 0 l 5
 0 1024 l 1
384 256 m 1
 384 128 l 1
 512 128 l 1
 512 256 l 1
 384 256 l 1
384 896 m 1
 384 384 l 1
 512 384 l 1
 512 896 l 1
 384 896 l 1
EndSplineSet
Validated: 1
EndChar

StartChar: cent
Encoding: 162 162 157
Width: 1024
VWidth: 1048
Flags: HW
LayerCount: 2
Fore
SplineSet
0 1024 m 1
 1024 1024 l 1
 1024 0 l 1
 0 0 l 5
 0 1024 l 1
640 896 m 1
 640 640 l 1
 768 640 l 1
 768 896 l 1
 640 896 l 1
256 896 m 1
 256 640 l 1
 384 640 l 1
 384 896 l 1
 256 896 l 1
EndSplineSet
Validated: 1
EndChar

StartChar: sterling
Encoding: 163 163 158
Width: 1024
VWidth: 1048
Flags: HW
LayerCount: 2
Fore
SplineSet
0 1024 m 1
 1024 1024 l 1
 1024 0 l 5
 0 0 l 1
 0 1024 l 1
384 640 m 1
 640 640 l 1
 640 384 l 1
 384 384 l 1
 384 640 l 1
256 896 m 1
 256 768 l 1
 128 768 l 1
 128 640 l 1
 256 640 l 1
 256 384 l 1
 128 384 l 1
 128 256 l 1
 256 256 l 1
 256 128 l 1
 384 128 l 1
 384 256 l 1
 640 256 l 1
 640 128 l 1
 768 128 l 1
 768 256 l 1
 896 256 l 1
 896 384 l 1
 768 384 l 1
 768 640 l 1
 896 640 l 1
 896 768 l 1
 768 768 l 1
 768 896 l 1
 640 896 l 1
 640 768 l 1
 384 768 l 1
 384 896 l 1
 256 896 l 1
EndSplineSet
Validated: 1
EndChar

StartChar: currency
Encoding: 164 164 159
Width: 1024
VWidth: 1048
Flags: HW
LayerCount: 2
Fore
SplineSet
512 896 m 1
 512 768 l 1
 256 768 l 1
 256 384 l 1
 512 384 l 1
 512 256 l 1
 256 256 l 1
 256 128 l 1
 512 128 l 1
 512 0 l 1
 0 0 l 1
 0 1024 l 1
 1024 1024 l 1
 1024 0 l 1
 640 0 l 1
 640 128 l 1
 896 128 l 1
 896 512 l 1
 640 512 l 1
 640 640 l 1
 896 640 l 1
 896 768 l 1
 640 768 l 1
 640 896 l 1
 512 896 l 1
384 640 m 1
 512 640 l 1
 512 512 l 1
 384 512 l 1
 384 640 l 1
640 384 m 1
 768 384 l 1
 768 256 l 1
 640 256 l 1
 640 384 l 1
EndSplineSet
Validated: 1
EndChar

StartChar: yen
Encoding: 165 165 160
Width: 1024
VWidth: 1048
Flags: HW
LayerCount: 2
Fore
SplineSet
0 1024 m 1
 1024 1024 l 1
 1024 0 l 1
 0 0 l 1
 0 1024 l 1
640 384 m 1
 640 128 l 1
 896 128 l 1
 896 384 l 1
 640 384 l 1
896 896 m 1
 768 896 l 1
 128 128 l 1
 256 128 l 1
 896 896 l 1
128 896 m 1
 128 640 l 1
 384 640 l 1
 384 896 l 1
 128 896 l 1
EndSplineSet
Validated: 1
EndChar

StartChar: glyph
Encoding: 256 -1 161
Width: 1048
VWidth: 1048
Flags: HW
LayerCount: 2
Fore
SplineSet
0 1049 m 5
 1049 1049 l 5
 1049 0 l 5
 0 0 l 5
 0 1049 l 5
EndSplineSet
Validated: 1
EndChar

StartChar: glyph
Encoding: 257 -1 162
Width: 1048
VWidth: 1048
Flags: HW
LayerCount: 2
Fore
SplineSet
0 1049 m 5
 1049 1049 l 5
 1049 0 l 5
 0 0 l 5
 0 1049 l 5
EndSplineSet
Validated: 1
EndChar

StartChar: glyph
Encoding: 258 -1 163
Width: 1048
VWidth: 1048
Flags: HW
LayerCount: 2
Fore
SplineSet
0 1049 m 5
 1049 1049 l 5
 1049 0 l 5
 0 0 l 5
 0 1049 l 5
EndSplineSet
Validated: 1
EndChar

StartChar: glyph
Encoding: 259 -1 164
Width: 1048
VWidth: 1048
Flags: HW
LayerCount: 2
Fore
SplineSet
0 1049 m 5
 1049 1049 l 5
 1049 0 l 5
 0 0 l 5
 0 1049 l 5
EndSplineSet
Validated: 1
EndChar

StartChar: glyph
Encoding: 260 -1 165
Width: 1048
VWidth: 1048
Flags: HW
LayerCount: 2
Fore
SplineSet
0 1049 m 5
 1049 1049 l 5
 1049 0 l 5
 0 0 l 5
 0 1049 l 5
EndSplineSet
Validated: 1
EndChar

StartChar: glyph
Encoding: 261 -1 166
Width: 1048
VWidth: 1048
Flags: HW
LayerCount: 2
Fore
SplineSet
0 1049 m 5
 1049 1049 l 5
 1049 0 l 5
 0 0 l 5
 0 1049 l 5
EndSplineSet
Validated: 1
EndChar

StartChar: glyph
Encoding: 262 -1 167
Width: 1048
VWidth: 1048
Flags: HW
LayerCount: 2
Fore
SplineSet
0 1049 m 5
 1049 1049 l 5
 1049 0 l 5
 0 0 l 5
 0 1049 l 5
EndSplineSet
Validated: 1
EndChar

StartChar: glyph
Encoding: 263 -1 168
Width: 1048
VWidth: 1048
Flags: HW
LayerCount: 2
Fore
SplineSet
0 1049 m 5
 1049 1049 l 5
 1049 0 l 5
 0 0 l 5
 0 1049 l 5
EndSplineSet
Validated: 1
EndChar

StartChar: glyph
Encoding: 264 -1 169
Width: 1048
VWidth: 1048
Flags: HW
LayerCount: 2
Fore
SplineSet
0 1049 m 5
 1049 1049 l 5
 1049 0 l 5
 0 0 l 5
 0 1049 l 5
EndSplineSet
Validated: 1
EndChar

StartChar: glyph
Encoding: 265 -1 170
Width: 1048
VWidth: 1048
Flags: HW
LayerCount: 2
Fore
SplineSet
0 1049 m 5
 1049 1049 l 5
 1049 0 l 5
 0 0 l 5
 0 1049 l 5
EndSplineSet
Validated: 1
EndChar

StartChar: NameMe.176
Encoding: 266 -1 171
Width: 1048
VWidth: 1048
Flags: HW
LayerCount: 2
Fore
SplineSet
0 1049 m 5
 1049 1049 l 5
 1049 0 l 5
 0 0 l 5
 0 1049 l 5
EndSplineSet
Validated: 1
EndChar

StartChar: NameMe.177
Encoding: 267 -1 172
Width: 1048
VWidth: 1048
Flags: HW
LayerCount: 2
Fore
SplineSet
0 1049 m 5
 1049 1049 l 5
 1049 0 l 5
 0 0 l 5
 0 1049 l 5
EndSplineSet
Validated: 1
EndChar

StartChar: NameMe.178
Encoding: 268 -1 173
Width: 1048
VWidth: 1048
Flags: HW
LayerCount: 2
Fore
SplineSet
0 1049 m 5
 1049 1049 l 5
 1049 0 l 5
 0 0 l 5
 0 1049 l 5
EndSplineSet
Validated: 1
EndChar

StartChar: NameMe.179
Encoding: 269 -1 174
Width: 1048
VWidth: 1048
Flags: HW
LayerCount: 2
Fore
SplineSet
0 1049 m 5
 1049 1049 l 5
 1049 0 l 5
 0 0 l 5
 0 1049 l 5
EndSplineSet
Validated: 1
EndChar

StartChar: NameMe.180
Encoding: 270 -1 175
Width: 1048
VWidth: 1048
Flags: HW
LayerCount: 2
Fore
SplineSet
0 1049 m 5
 1049 1049 l 5
 1049 0 l 5
 0 0 l 5
 0 1049 l 5
EndSplineSet
Validated: 1
EndChar

StartChar: NameMe.181
Encoding: 271 -1 176
Width: 1048
VWidth: 1048
Flags: HW
LayerCount: 2
Fore
SplineSet
0 1049 m 5
 1049 1049 l 5
 1049 0 l 5
 0 0 l 5
 0 1049 l 5
EndSplineSet
Validated: 1
EndChar

StartChar: NameMe.182
Encoding: 272 -1 177
Width: 1048
VWidth: 1048
Flags: HW
LayerCount: 2
Fore
SplineSet
0 1049 m 5
 1049 1049 l 5
 1049 0 l 5
 0 0 l 5
 0 1049 l 5
EndSplineSet
Validated: 1
EndChar

StartChar: NameMe.183
Encoding: 273 -1 178
Width: 1048
VWidth: 1048
Flags: HW
LayerCount: 2
Fore
SplineSet
0 1049 m 5
 1049 1049 l 5
 1049 0 l 5
 0 0 l 5
 0 1049 l 5
EndSplineSet
Validated: 1
EndChar

StartChar: NameMe.184
Encoding: 274 -1 179
Width: 1048
VWidth: 1048
Flags: HW
LayerCount: 2
Fore
SplineSet
0 1049 m 5
 1049 1049 l 5
 1049 0 l 5
 0 0 l 5
 0 1049 l 5
EndSplineSet
Validated: 1
EndChar

StartChar: NameMe.185
Encoding: 275 -1 180
Width: 1048
VWidth: 1048
Flags: HW
LayerCount: 2
Fore
SplineSet
0 1049 m 5
 1049 1049 l 5
 1049 0 l 5
 0 0 l 5
 0 1049 l 5
EndSplineSet
Validated: 1
EndChar

StartChar: brokenbar
Encoding: 166 166 181
Width: 1024
VWidth: 1048
Flags: HW
LayerCount: 2
Fore
SplineSet
0 1024 m 1
 1024 1024 l 1
 1024 0 l 1
 0 0 l 5
 0 1024 l 1
441.806451613 619.35483871 m 1
 384 665.6 l 1
 384 768 l 1
 512 768 l 1
 512 672 l 1
 441.806451613 619.35483871 l 1
252.935005701 349.701254276 m 1
 441.806451613 491.35483871 l 1
 645.565217391 328.347826087 l 1
 597.333333333 256 l 1
 256 256 l 1
 252.935005701 349.701254276 l 1
128 384 m 1
 128 384 128 306 128 256 c 3
 128 128 256 128 256 128 c 1
 640 128 l 1
 729.043478261 261.565217391 l 1
 896 128 l 1
 896 256 l 1
 784.695652174 345.043478261 l 1
 896 512 l 1
 768 512 l 1
 701.217391304 411.826086957 l 1
 524.387096774 553.290322581 l 1
 640 640 l 1
 640 640 640 718 640 768 c 3
 640 896 512 896 512 896 c 1
 384 896 l 1
 384 896 256 896 256 768 c 3
 256 718 256 640 256 640 c 1
 359.225806452 557.419354839 l 1
 128 384 l 1
EndSplineSet
Validated: 1
EndChar

StartChar: section
Encoding: 167 167 182
Width: 1024
VWidth: 1048
Flags: HW
LayerCount: 2
Fore
SplineSet
0 1024 m 1
 1024 1024 l 1
 1024 0 l 1
 0 0 l 1
 0 1024 l 1
640 896 m 1
 512 896 l 1
 384 640 l 1
 512 640 l 1
 640 896 l 1
EndSplineSet
Validated: 1
EndChar

StartChar: dieresis
Encoding: 168 168 183
Width: 1024
VWidth: 1048
Flags: HW
LayerCount: 2
Fore
SplineSet
0 1024 m 1
 1024 1024 l 1
 1024 0 l 1
 0 0 l 1
 0 1024 l 1
640 384 m 0
 640 484 640 540 640 640 c 0
 640 768 768 768 768 768 c 1
 768 896 l 1
 768 896 512 896 512 640 c 0
 512 540 512 484 512 384 c 0
 512 128 768 128 768 128 c 1
 768 256 l 1
 768 256 640 256 640 384 c 0
EndSplineSet
Validated: 1
EndChar

StartChar: copyright
Encoding: 169 169 184
Width: 1024
VWidth: 1048
Flags: HW
LayerCount: 2
Fore
SplineSet
0 1024 m 1
 1024 1024 l 5
 1024 0 l 1
 0 0 l 1
 0 1024 l 1
256 896 m 1
 256 768 l 1
 256 768 384 768 384 640 c 0
 384 540 384 484 384 384 c 0
 384 256 256 256 256 256 c 1
 256 128 l 1
 256 128 512 128 512 384 c 0
 512 484 512 540 512 640 c 0
 512 896 256 896 256 896 c 1
EndSplineSet
Validated: 1
EndChar

StartChar: ordfeminine
Encoding: 170 170 185
Width: 1024
VWidth: 1048
Flags: HW
LayerCount: 2
Fore
SplineSet
0 1024 m 1
 1024 1024 l 5
 1024 0 l 1
 0 0 l 1
 0 1024 l 1
640 640 m 1
 512 640 l 1
 512 768 l 1
 384 768 l 1
 384 640 l 1
 389 512 512 512 512 512 c 1
 256 512 l 1
 256 384 l 1
 512 384 l 1
 512 384 384 384 384 256 c 2
 384 128 l 1
 512 128 l 1
 512 256 l 1
 640 256 l 1
 640 128 l 1
 768 128 l 1
 768 128 768 256 768 256 c 2
 768 384 640 384 640 384 c 1
 896 384 l 1
 896 512 l 1
 641.768949229 512 l 2
 657.174078292 512.206099388 768 512 768 640 c 2
 768 768 l 1
 640 768 l 1
 640 640 l 1
EndSplineSet
Validated: 1
EndChar

StartChar: guillemotleft
Encoding: 171 171 186
Width: 1024
VWidth: 1048
Flags: HW
LayerCount: 2
Fore
SplineSet
0 1024 m 1
 1024 1024 l 5
 1024 0 l 1
 0 0 l 1
 0 1024 l 1
512 768 m 1
 512 512 l 1
 256 512 l 1
 256 384 l 1
 512 384 l 1
 512 128 l 1
 640 128 l 1
 640 384 l 1
 896 384 l 1
 896 512 l 1
 640 512 l 1
 640 768 l 1
 512 768 l 1
EndSplineSet
Validated: 1
EndChar

StartChar: logicalnot
Encoding: 172 172 187
Width: 1024
VWidth: 1048
Flags: HW
LayerCount: 2
Fore
SplineSet
512 384 m 1
 512 128 l 1
 384 128 l 1
 384 0 l 1
 0 0 l 1
 0 1024 l 1
 1024 1024 l 1
 1024 0 l 1
 512 0 l 1
 512 0 640 0 640 128 c 0
 640 228 640 384 640 384 c 1
 512 384 l 1
EndSplineSet
Validated: 1
EndChar

StartChar: uni00AD
Encoding: 173 173 188
Width: 1024
VWidth: 1048
Flags: HW
LayerCount: 2
Fore
SplineSet
0 1024 m 1
 1024 1024 l 5
 1024 0 l 1
 0 0 l 1
 0 1024 l 1
256 512 m 1
 256 384 l 1
 896 384 l 1
 896 512 l 1
 256 512 l 1
EndSplineSet
Validated: 1
EndChar

StartChar: registered
Encoding: 174 174 189
Width: 1024
VWidth: 1048
Flags: HW
LayerCount: 2
Fore
SplineSet
0 1024 m 1
 1024 1024 l 1
 1024 0 l 5
 0 0 l 1
 0 1024 l 1
384 384 m 1
 384 128 l 1
 640 128 l 1
 640 384 l 1
 384 384 l 1
EndSplineSet
Validated: 1
EndChar

StartChar: macron
Encoding: 175 175 190
Width: 1024
VWidth: 1048
Flags: HW
LayerCount: 2
Fore
SplineSet
0 1024 m 1
 1024 1024 l 5
 1024 0 l 1
 0 0 l 1
 0 1024 l 1
768 768 m 1
 256 128 l 1
 384 128 l 1
 896 768 l 1
 768 768 l 1
EndSplineSet
Validated: 1
EndChar

StartChar: degree
Encoding: 176 176 191
Width: 1024
VWidth: 1048
Flags: HW
LayerCount: 2
Fore
SplineSet
0 1024 m 1
 1024 1024 l 1
 1024 0 l 5
 0 0 l 1
 0 1024 l 1
767.6 256 m 1
 384 256 l 1
 766 768 l 1
 767.6 256 l 1
768 128 m 1
 768 128 896 128 896 256 c 11
 896 456 896 568 896 768 c 19
 896 896 768 896 768 896 c 1
 256 896 l 1
 256 896 128 896 128 768 c 11
 128 568 128 456 128 256 c 19
 128 128 256 128 256 128 c 1
 768 128 l 1
640 768 m 1
 264 264 l 1
 256 768 l 1
 640 768 l 1
EndSplineSet
Validated: 1
EndChar

StartChar: plusminus
Encoding: 177 177 192
Width: 1024
VWidth: 1048
Flags: HW
LayerCount: 2
Fore
SplineSet
512 704 m 1
 512 256 l 1
 256 256 l 1
 256 128 l 1
 896 128 l 1
 896 256 l 1
 640 256 l 1
 640 896 l 1
 512 896 l 1
 256 640 l 1
 432 640 l 1
 512 704 l 1
0 1024 m 1
 1024 1024 l 1
 1024 0 l 1
 0 0 l 1
 0 1024 l 1
EndSplineSet
Validated: 1
EndChar

StartChar: uni00B2
Encoding: 178 178 193
Width: 1024
VWidth: 1048
Flags: HW
LayerCount: 2
Fore
SplineSet
0 1024 m 1
 1024 1024 l 1
 1024 0 l 5
 0 0 l 5
 0 1024 l 1
256 384 m 1
 768 384 l 1
 768 384 896 384 896 512 c 11
 896 612 896 668 896 768 c 19
 896 896 768 896 768 896 c 1
 256 896 l 1
 256 896 128 896 128 768 c 11
 128 718 128 640 128 640 c 1
 256 640 l 1
 256 768 l 1
 768 768 l 1
 768 512 l 1
 256 512 l 1
 256 512 128 512 128 384 c 3
 128 284 128 128 128 128 c 1
 896 128 l 1
 896 256 l 1
 256 256 l 1
 256 384 l 1
EndSplineSet
Validated: 1
EndChar

StartChar: uni00B3
Encoding: 179 179 194
Width: 1024
VWidth: 1048
Flags: HW
LayerCount: 2
Fore
SplineSet
0 1024 m 1
 1024 1024 l 1
 1024 0 l 1
 0 0 l 1
 0 1024 l 1
128 256 m 0
 128 128 256 128 256 128 c 1
 768 128 l 1
 768 128 896 128 896 256 c 0
 896 356 896 412 896 512 c 0
 896 572 839 574 833 574 c 0
 832 574 l 1
 832 574 896 576 896 640 c 0
 896 690 896 718 896 768 c 0
 896 896 768 896 768 896 c 1
 256 896 l 1
 256 896 128 896 128 768 c 2
 128 640 l 1
 256 640 l 1
 256 768 l 1
 768 768 l 1
 767 640 l 1
 512 640 l 1
 512 512 l 1
 767 512 l 1
 768 256 l 1
 256 256 l 1
 256 384 l 1
 128 384 l 1
 128 384 128 306 128 256 c 0
EndSplineSet
Validated: 1
EndChar

StartChar: acute
Encoding: 180 180 195
Width: 1024
VWidth: 1048
Flags: HW
LayerCount: 2
Fore
SplineSet
0 1024 m 1
 1024 1024 l 1
 1024 0 l 1
 0 0 l 1
 0 1024 l 1
128 512 m 1
 128 427 128 341 128 256 c 1
 512 256 l 1
 512 128 l 1
 640 128 l 1
 640 256 l 1
 896 256 l 1
 896 384 l 1
 640 384 l 1
 640 896 l 1
 512 896 l 1
 128 512 l 1
256 448 m 1
 512 704 l 1
 512 384 l 1
 256 384 l 1
 256 448 l 1
EndSplineSet
Validated: 1
EndChar

StartChar: mu
Encoding: 181 181 196
Width: 1024
VWidth: 1048
Flags: HW
LayerCount: 2
Fore
SplineSet
0 1024 m 1
 1024 1024 l 1
 1024 0 l 1
 0 0 l 5
 0 1024 l 1
128 896 m 1
 128 512 l 1
 768 512 l 1
 768 256 l 1
 256 256 l 1
 256 384 l 1
 128 384 l 1
 128 384 128 306 128 256 c 19
 128 128 256 128 256 128 c 1
 768 128 l 1
 768 128 896 128 896 256 c 11
 896 356 896 412 896 512 c 19
 896 640 768 640 768 640 c 1
 256 640 l 1
 256 768 l 1
 896 768 l 1
 896 896 l 1
 128 896 l 1
EndSplineSet
Validated: 1
EndChar

StartChar: paragraph
Encoding: 182 182 197
Width: 1024
VWidth: 1048
Flags: HW
LayerCount: 2
Fore
SplineSet
0 1024 m 1
 1024 1024 l 1
 1024 0 l 5
 0 0 l 5
 0 1024 l 1
768 256 m 1
 256 256 l 1
 256 512 l 1
 768 512 l 1
 768 256 l 1
768 128 m 1
 768 128 896 128 896 256 c 0
 896 356 896 412 896 512 c 0
 896 640 768 640 768 640 c 1
 256 640 l 1
 256 768 l 1
 768 768 l 1
 768 896 l 1
 256 896 l 1
 256 896 128 896 128 768 c 0
 128 568 128 456 128 256 c 0
 128 128 256 128 256 128 c 1
 768 128 l 1
EndSplineSet
Validated: 1
EndChar

StartChar: periodcentered
Encoding: 183 183 198
Width: 1024
VWidth: 1048
Flags: HW
LayerCount: 2
Fore
SplineSet
0 1024 m 1
 1024 1024 l 1
 1024 0 l 1
 0 0 l 1
 0 1024 l 1
128 896 m 1
 128 768 l 1
 768 768 l 1
 768 704 l 1
 384 384 l 1
 384 128 l 1
 512 128 l 1
 512 320 l 1
 896 640 l 1
 896 725 896 811 896 896 c 1
 128 896 l 1
EndSplineSet
Validated: 1
EndChar

StartChar: cedilla
Encoding: 184 184 199
Width: 1024
VWidth: 1048
Flags: HW
LayerCount: 2
Fore
SplineSet
0 1024 m 1
 1024 1024 l 1
 1024 0 l 1
 0 0 l 1
 0 1024 l 1
256 512 m 1
 767 512 l 1
 768 256 l 1
 256 256 l 1
 256 512 l 1
704 640 m 1
 320 640 l 1
 320 768 l 1
 704 768 l 1
 704 640 l 1
128 256 m 0
 128 128 256 128 256 128 c 1
 768 128 l 1
 768 128 896 128 896 256 c 0
 896 356 896 476 896 576 c 0
 896 640 832 640 832 640 c 1
 832 640 832 724 832 774 c 0
 832 891 725 896 707 896 c 0
 705 896 704 896 704 896 c 1
 320 896 l 1
 320 896 319 896 317 896 c 0
 299 896 192 891 192 774 c 0
 192 724 192 690 192 640 c 1
 192 640 128 640 128 576 c 0
 128 476 128 356 128 256 c 0
EndSplineSet
Validated: 1
EndChar

StartChar: uni00B9
Encoding: 185 185 200
Width: 1024
VWidth: 1048
Flags: HW
LayerCount: 2
Fore
SplineSet
0 1024 m 1
 1024 1024 l 1
 1024 0 l 5
 0 0 l 5
 0 1024 l 1
256 512 m 1
 256 768 l 1
 768 768 l 1
 768 512 l 1
 256 512 l 1
768 128 m 1
 768 128 896 128 896 256 c 0
 896 456 896 568 896 768 c 0
 896 896 768 896 768 896 c 1
 256 896 l 1
 256 896 128 896 128 768 c 0
 128 668 128 612 128 512 c 0
 128 384 256 384 256 384 c 1
 768 384 l 1
 768 256 l 1
 256 256 l 1
 256 128 l 1
 768 128 l 1
EndSplineSet
Validated: 1
EndChar

StartChar: ordmasculine
Encoding: 186 186 201
Width: 1024
VWidth: 1048
Flags: HW
LayerCount: 2
Fore
SplineSet
0 1024 m 1
 1024 1024 l 1
 1024 0 l 5
 0 0 l 5
 0 1024 l 1
384 640 m 1
 384 512 l 1
 512 512 l 1
 512 640 l 1
 384 640 l 1
384 256 m 1
 384 128 l 1
 512 128 l 1
 512 256 l 1
 384 256 l 1
EndSplineSet
Validated: 1
EndChar

StartChar: guillemotright
Encoding: 187 187 202
Width: 1024
VWidth: 1048
Flags: HW
LayerCount: 2
Fore
SplineSet
384 768 m 1
 384 640 l 1
 512 640 l 1
 512 768 l 1
 384 768 l 1
384 384 m 1
 384 128 l 1
 256 128 l 1
 256 0 l 1
 0 0 l 1
 0 1024 l 1
 1024 1024 l 1
 1024 0 l 1
 384 0 l 1
 384 0 512 -0 512 128 c 0
 512 228 512 384 512 384 c 1
 384 384 l 1
EndSplineSet
Validated: 1
EndChar

StartChar: onequarter
Encoding: 188 188 203
Width: 1024
VWidth: 1048
Flags: HW
LayerCount: 2
Fore
SplineSet
0 1024 m 1
 1024 1024 l 1
 1024 0 l 1
 0 0 l 5
 0 1024 l 1
768 256 m 1
 512 426.666666667 l 1
 512 469.333333333 l 1
 768 640 l 1
 768 768 l 1
 384 512 l 1
 384 384 l 1
 768 128 l 1
 768 256 l 1
EndSplineSet
Validated: 1
EndChar

StartChar: onehalf
Encoding: 189 189 204
Width: 1024
VWidth: 1048
Flags: HW
LayerCount: 2
Fore
SplineSet
0 1024 m 1
 1024 1024 l 1
 1024 0 l 5
 0 0 l 5
 0 1024 l 1
256 640 m 1
 256 512 l 1
 896 512 l 1
 896 640 l 1
 256 640 l 1
256 384 m 1
 256 256 l 1
 896 256 l 1
 896 384 l 1
 256 384 l 1
EndSplineSet
Validated: 1
EndChar

StartChar: threequarters
Encoding: 190 190 205
Width: 1024
VWidth: 1048
Flags: HW
LayerCount: 2
Fore
SplineSet
0 1024 m 1
 1024 1024 l 1
 1024 0 l 1
 0 0 l 1
 0 1024 l 1
384 256 m 1
 384 128 l 1
 768 384 l 1
 768 512 l 1
 384 768 l 1
 384 640 l 1
 640 469.333333333 l 1
 640 426.666666667 l 1
 384 256 l 1
EndSplineSet
Validated: 1
EndChar

StartChar: questiondown
Encoding: 191 191 206
Width: 1024
VWidth: 1048
Flags: HW
LayerCount: 2
Fore
SplineSet
0 1024 m 1
 1024 1024 l 1
 1024 0 l 5
 0 0 l 1
 0 1024 l 1
512 256 m 1
 512 128 l 1
 640 128 l 1
 640 256 l 1
 512 256 l 1
768 640 m 1
 640 640 l 1
 640 640 512 640 512 512 c 3
 512 462 512 384 512 384 c 1
 640 384 l 1
 640 512 l 1
 768 512 l 1
 768 512 896 512 896 640 c 3
 896 690 896 718 896 768 c 0
 896 896 768 896 768 896 c 1
 256 896 l 1
 256 896 128 896 128 768 c 0
 128 640 l 1
 256 640 l 1
 256 768 l 1
 768 768 l 1
 768 640 l 1
EndSplineSet
Validated: 1
EndChar

StartChar: Agrave
Encoding: 192 192 207
Width: 1024
VWidth: 1048
Flags: HW
LayerCount: 2
Fore
SplineSet
640 640 m 1
 640 512 l 1
 512 512 l 1
 512 640 l 1
 640 640 l 1
768 768 m 1
 768 640 l 2
 768 768 640 768 640 768 c 1
 768 768 l 1
256 256 m 1
 256 768 l 1
 512 768 l 1
 512 768 384 768 384 640 c 0
 384 590 384 562 384 512 c 0
 384 384 512 384 512 384 c 1
 768 384 l 1
 768 384 894 384 894 512 c 0
 894 612 896 668 896 768 c 0
 896 894 768 896 768 896 c 1
 256 896 l 1
 256 896 128 896 128 768 c 0
 128 568 128 456 128 256 c 0
 128 128 256 128 256 128 c 1
 768 128 l 1
 768 256 l 1
 256 256 l 1
0 1024 m 1
 1024 1024 l 1
 1024 0 l 1
 0 0 l 1
 0 1024 l 1
EndSplineSet
Validated: 1
EndChar

StartChar: Aacute
Encoding: 193 193 208
Width: 1024
VWidth: 1048
Flags: HW
LayerCount: 2
Fore
SplineSet
0 1024 m 1
 1024 1024 l 1
 1024 0 l 5
 0 0 l 1
 0 1024 l 1
256 768 m 1
 768 768 l 1
 768 512 l 1
 256 512 l 1
 256 768 l 1
896 768 m 3
 896 896 768 896 768 896 c 1
 256 896 l 1
 256 896 128 896 128 768 c 3
 128 518 128 128 128 128 c 1
 256 128 l 1
 256 384 l 1
 768 384 l 1
 768 128 l 1
 896 128 l 1
 896 128 896 518 896 768 c 3
EndSplineSet
Validated: 1
EndChar

StartChar: Acircumflex
Encoding: 194 194 209
Width: 1024
VWidth: 1048
Flags: HW
LayerCount: 2
Fore
SplineSet
0 1024 m 1
 1024 1024 l 1
 1024 0 l 1
 0 0 l 1
 0 1024 l 1
128 896 m 1
 128 128 l 1
 128 128 768 128 768 128 c 1
 768 128 896 128 896 256 c 2
 896 256 898 412 898 512 c 19
 898 576 832 576 832 576 c 1
 832 640 l 1
 832 640 832 768 832 768 c 1
 832 896 704 896 704 896 c 1
 128 896 l 1
768 512 m 1
 768 256 l 1
 254 258 l 1
 256 512 l 1
 768 512 l 1
704 640 m 1
 256 640 l 1
 256 768 l 1
 704 768 l 1
 704 640 l 1
EndSplineSet
Validated: 1
EndChar

StartChar: Atilde
Encoding: 195 195 210
Width: 1024
VWidth: 1048
Flags: HW
LayerCount: 2
Fore
SplineSet
0 1024 m 1
 1024 1024 l 5
 1024 0 l 5
 0 0 l 5
 0 1024 l 1
768 256 m 1
 256 256 l 1
 256 768 l 1
 768 768 l 1
 768 640 l 1
 896 640 l 1
 896 640 896 718 896 768 c 3
 896 896 768 896 768 896 c 1
 256 896 l 1
 256 896 128 896 128 768 c 3
 128 568 128 456 128 256 c 3
 128 128 256 128 256 128 c 1
 768 128 l 1
 768 128 896 128 896 256 c 3
 896 345 896 384 896 384 c 1
 768 384 l 1
 768 256 l 1
EndSplineSet
Validated: 1
EndChar

StartChar: Adieresis
Encoding: 196 196 211
Width: 1024
VWidth: 1048
Flags: HW
LayerCount: 2
Fore
SplineSet
0 1024 m 1
 1024 1024 l 1
 1024 0 l 5
 0 0 l 5
 0 1024 l 1
128 896 m 1
 128 128 l 1
 298.666666667 128 540 128 640 128 c 1
 896 128 896 384 896 384 c 1
 896 640 l 1
 896 640 896 896 640 896 c 1
 540 896 298.666666667 896 128 896 c 1
768 384 m 1
 768 384 768 256 640 256 c 3
 540 256 256 256 256 256 c 1
 256 768 l 1
 256 768 540 768 640 768 c 3
 768 768 768 640 768 640 c 1
 768 384 l 1
EndSplineSet
Validated: 1
EndChar

StartChar: Aring
Encoding: 197 197 212
Width: 1024
VWidth: 1048
Flags: HW
LayerCount: 2
Fore
SplineSet
0 1024 m 1
 1024 1024 l 5
 1024 0 l 5
 0 0 l 5
 0 1024 l 1
128 896 m 1
 128 128 l 1
 256 128 l 1
 768 128 l 1
 768 256 l 1
 256 256 l 1
 256 512 l 1
 640 512 l 1
 640 640 l 1
 256 640 l 1
 256 768 l 1
 768 768 l 1
 768 896 l 1
 256 896 l 1
 128 896 l 1
EndSplineSet
Validated: 1
EndChar

StartChar: AE
Encoding: 198 198 213
Width: 1024
VWidth: 1048
Flags: HW
LayerCount: 2
Fore
SplineSet
0 1024 m 1
 1024 1024 l 1
 1024 0 l 5
 0 0 l 5
 0 1024 l 1
128 896 m 1
 128 128 l 1
 256 128 l 1
 256 512 l 1
 768 512 l 1
 768 640 l 1
 256 640 l 1
 256 768 l 1
 896 768 l 1
 896 896 l 1
 256 896 l 1
 128 896 l 1
EndSplineSet
Validated: 1
EndChar

StartChar: Ccedilla
Encoding: 199 199 214
Width: 1024
VWidth: 1048
Flags: HW
LayerCount: 2
Fore
SplineSet
0 1024 m 1
 1024 1024 l 5
 1024 0 l 5
 0 0 l 5
 0 1024 l 1
768 256 m 1
 256 256 l 1
 256 768 l 1
 768 768 l 1
 768 640 l 1
 896 640 l 1
 896 640 890 718 890 768 c 3
 890 896 768 896 768 896 c 1
 256 896 l 1
 256 896 128 896 128 768 c 3
 128 568 128 456 128 256 c 3
 128 128 256 128 256 128 c 1
 768 128 l 1
 768 128 896 128 896 242 c 3
 896 356 896 512 896 512 c 1
 768 512 640 512 512 512 c 1
 512 384 l 1
 768 384 l 1
 768 256 l 1
EndSplineSet
Validated: 1
EndChar

StartChar: Egrave
Encoding: 200 200 215
Width: 1024
VWidth: 1048
Flags: HW
LayerCount: 2
Fore
SplineSet
128 896 m 1
 128 128 l 1
 256 128 l 1
 256 512 l 1
 768 512 l 1
 768 128 l 1
 896 128 l 1
 896 896 l 1
 768 896 l 1
 768 640 l 1
 256 640 l 1
 256 896 l 1
 128 896 l 1
0 1024 m 1
 1024 1024 l 1
 1024 0 l 1
 0 0 l 1
 0 1024 l 1
EndSplineSet
Validated: 1
EndChar

StartChar: Eacute
Encoding: 201 201 216
Width: 1024
VWidth: 1048
Flags: HW
LayerCount: 2
Fore
SplineSet
0 1024 m 1
 1024 1024 l 1
 1024 0 l 5
 0 0 l 5
 0 1024 l 1
256 896 m 1
 256 768 l 1
 512 768 l 1
 512 256 l 1
 256 256 l 1
 256 128 l 1
 896 128 l 1
 896 256 l 1
 640 256 l 1
 640 768 l 1
 896 768 l 1
 896 896 l 1
 256 896 l 1
EndSplineSet
Validated: 1
EndChar

StartChar: Ecircumflex
Encoding: 202 202 217
Width: 1024
VWidth: 1048
Flags: HW
LayerCount: 2
Fore
SplineSet
0 1024 m 5
 1024 1024 l 5
 1024 0 l 5
 0 0 l 5
 0 1024 l 5
128 256 m 3
 128 128 256 128 256 128 c 1
 768 128 l 1
 768 128 896 128 896 256 c 3
 896 506 896 896 896 896 c 1
 768 896 l 1
 768 256 l 1
 256 256 l 1
 256 512 l 1
 128 512 l 1
 128 512 128 356 128 256 c 3
EndSplineSet
Validated: 1
EndChar

StartChar: Edieresis
Encoding: 203 203 218
Width: 1024
VWidth: 1048
Flags: HW
LayerCount: 2
Fore
SplineSet
0 1024 m 1
 1024 1024 l 5
 1024 0 l 1
 0 0 l 1
 0 1024 l 1
128 896 m 1
 128 128 l 1
 256 128 l 1
 256 512 l 1
 412 512 l 1
 768 128 l 1
 896 128 l 1
 510.986723839 576.849674281 l 1
 510.950445633 579.171479501 l 1
 768 896 l 1
 640 896 l 1
 408 640 l 1
 256 640 l 1
 256 896 l 1
 128 896 l 1
EndSplineSet
Validated: 1
EndChar

StartChar: Igrave
Encoding: 204 204 219
Width: 1024
VWidth: 1048
Flags: HW
LayerCount: 2
Fore
SplineSet
0 1024 m 1
 1024 1024 l 1
 1024 0 l 5
 0 0 l 5
 0 1024 l 1
128 896 m 1
 128 128 l 1
 256 128 l 1
 896 128 l 1
 896 256 l 1
 256 256 l 1
 256 896 l 1
 128 896 l 1
EndSplineSet
Validated: 1
EndChar

StartChar: Iacute
Encoding: 205 205 220
Width: 1024
VWidth: 1048
Flags: HW
LayerCount: 2
Fore
SplineSet
0 1024 m 5
 1024 1024 l 5
 1024 0 l 5
 0 0 l 5
 0 1024 l 5
128 896 m 1
 128 128 l 1
 256 128 l 1
 256 640 l 1
 384 512 l 1
 640 512 l 1
 768 640 l 1
 768 128 l 1
 896 128 l 1
 896 896 l 1
 768 896 l 1
 768 832 l 1
 576 640 l 0
 576 640 448 640 448 640 c 1
 448 640 256 832 256 832 c 1
 256 896 l 1
 128 896 l 1
EndSplineSet
Validated: 1
EndChar

StartChar: Icircumflex
Encoding: 206 206 221
Width: 1024
VWidth: 1048
Flags: HW
LayerCount: 2
Fore
SplineSet
0 1024 m 1
 1024 1024 l 5
 1024 0 l 5
 0 0 l 5
 0 1024 l 1
128 896 m 1
 128 128 l 1
 256 128 l 1
 256 640 l 1
 768 256 l 1
 768 128 l 1
 896 128 l 1
 896 896 l 1
 768 896 l 1
 768 384 l 1
 256 768 l 1
 256 896 l 1
 128 896 l 1
EndSplineSet
Validated: 1
EndChar

StartChar: Idieresis
Encoding: 207 207 222
Width: 1024
VWidth: 1048
Flags: HW
LayerCount: 2
Fore
SplineSet
0 1024 m 5
 1024 1024 l 5
 1024 0 l 5
 0 0 l 5
 0 1024 l 5
128 256 m 3
 128 128 256 128 256 128 c 1
 768 128 l 1
 768 128 896 128 896 292 c 3
 896 456 896 568 896 768 c 3
 896 896 768 896 768 896 c 1
 256 896 l 1
 256 896 128 896 128 768 c 3
 128 568 128 456 128 256 c 3
256 256 m 1
 256 768 l 1
 768 768 l 1
 768 256 l 1
 256 256 l 1
EndSplineSet
Validated: 1
EndChar

StartChar: Eth
Encoding: 208 208 223
Width: 1024
VWidth: 1048
Flags: HW
LayerCount: 2
Fore
SplineSet
0 1024 m 1
 1024 1024 l 1
 1024 0 l 1
 0 0 l 1
 0 1024 l 1
128 896 m 1
 128 128 l 1
 256 128 l 1
 256 384 l 1
 256 384 568 384 768 384 c 3
 896 384 896 512 896 512 c 1
 896 768 l 1
 896 768 896 896 768 896 c 3
 668 896 341 896 128 896 c 1
768 768 m 1
 768 512 l 1
 256 512 l 1
 256 768 l 1
 768 768 l 1
EndSplineSet
Validated: 1
EndChar

StartChar: Ntilde
Encoding: 209 209 224
Width: 1024
VWidth: 1048
Flags: HW
LayerCount: 2
Fore
SplineSet
0 1024 m 1
 1024 1024 l 1
 1024 0 l 5
 0 0 l 5
 0 1024 l 1
128 256 m 19
 128 128 256 128 256 128 c 1
 768 128 l 1
 768 128 896 128 896 256 c 11
 896 456 896 568 896 768 c 19
 896 896 768 896 768 896 c 1
 256 896 l 1
 256 896 128 896 128 768 c 11
 128 568 128 456 128 256 c 19
256 256 m 1
 256 768 l 1
 768 768 l 1
 768 256 l 1
 640 256 l 1
 512 512 l 1
 384 512 l 1
 512 256 l 1
 256 256 l 1
EndSplineSet
Validated: 1
EndChar

StartChar: Ograve
Encoding: 210 210 225
Width: 1024
VWidth: 1048
Flags: HW
LayerCount: 2
Fore
SplineSet
0 1024 m 1
 1024 1024 l 1
 1024 0 l 1
 0 0 l 1
 0 1024 l 1
128 896 m 1
 128 128 l 1
 256 128 l 1
 256 384 l 1
 640 384 l 1
 768 128 l 1
 896 128 l 1
 768 384 l 1
 768 384 896 384 896 512 c 11
 896 612 896 668 896 768 c 19
 896 896 768 896 768 896 c 1
 555 896 341 896 128 896 c 1
768 768 m 1
 768 512 l 1
 256 512 l 1
 256 768 l 1
 768 768 l 1
EndSplineSet
Validated: 1
EndChar

StartChar: Oacute
Encoding: 211 211 226
Width: 1024
VWidth: 1048
Flags: HW
LayerCount: 2
Fore
SplineSet
0 1024 m 1
 1024 1024 l 5
 1024 0 l 5
 0 0 l 5
 0 1024 l 1
128 256 m 19
 128 128 256 128 256 128 c 1
 768 128 l 1
 768 128 896 128 896 256 c 11
 896 356 896 412 896 512 c 19
 896 640 768 640 768 640 c 1
 256 640 l 1
 256 768 l 1
 768 768 l 1
 768 896 l 1
 256 896 l 1
 256 896 128 896 128 768 c 11
 128 718 128 690 128 640 c 19
 128 512 256 512 256 512 c 1
 768 512 l 1
 768 256 l 1
 256 256 l 1
 256 384 l 1
 128 384 l 1
 128 384 128 306 128 256 c 19
EndSplineSet
Validated: 1
EndChar

StartChar: Ocircumflex
Encoding: 212 212 227
Width: 1024
VWidth: 1048
Flags: HW
LayerCount: 2
Fore
SplineSet
0 1024 m 1
 1024 1024 l 1
 1024 0 l 1
 0 0 l 1
 0 768 l 1
 384 768 l 1
 384 128 l 1
 512 128 l 1
 512 768 l 1
 896 768 l 1
 896 896 l 1
 0 896 l 1
 0 1024 l 1
EndSplineSet
Validated: 1
EndChar

StartChar: Otilde
Encoding: 213 213 228
Width: 1024
VWidth: 1048
Flags: HW
LayerCount: 2
Fore
SplineSet
0 1024 m 5
 1024 1024 l 5
 1024 0 l 5
 0 0 l 5
 0 1024 l 5
128 896 m 1
 128 896 128 506 128 256 c 3
 128 128 256 128 256 128 c 1
 896 128 l 1
 896 128 896 896 896 896 c 1
 768 896 l 1
 768 256 l 1
 256 256 l 1
 256 896 l 1
 128 896 l 1
EndSplineSet
Validated: 1
EndChar

StartChar: Odieresis
Encoding: 214 214 229
Width: 1024
VWidth: 1048
Flags: HW
LayerCount: 2
Fore
SplineSet
0 1024 m 1
 1024 1024 l 5
 1024 0 l 5
 0 0 l 5
 0 1024 l 1
768 384 m 1
 640 256 l 1
 384 256 l 1
 256 384 l 1
 256 896 l 1
 128 896 l 1
 128 384 l 1
 384 128 l 1
 640 128 l 1
 896 384 l 1
 896 896 l 1
 768 896 l 1
 768 384 l 1
EndSplineSet
Validated: 1
EndChar

StartChar: multiply
Encoding: 215 215 230
Width: 1024
VWidth: 1048
Flags: HW
LayerCount: 2
Fore
SplineSet
0 1024 m 1
 1024 1024 l 5
 1024 0 l 5
 0 0 l 5
 0 1024 l 1
128 896 m 1
 128 256 l 1
 128 256 128 128 256 128 c 0
 306 128 334 128 384 128 c 0
 512 128 513 256 513 256 c 1
 513 252 514 128 640 128 c 0
 690 128 718 128 768 128 c 0
 896 128 896 256 896 256 c 1
 896 896 l 1
 768 896 l 1
 768 257 l 1
 639 257 l 1
 640 384 l 1
 384 384 l 1
 384 257 l 1
 256 256 l 1
 256 896 l 1
 128 896 l 1
EndSplineSet
Validated: 1
EndChar

StartChar: Oslash
Encoding: 216 216 231
Width: 1024
VWidth: 1048
Flags: HW
LayerCount: 2
Fore
SplineSet
0 1024 m 1
 1024 1024 l 5
 1024 0 l 1
 0 0 l 5
 0 1024 l 1
128 896 m 1
 384 576 l 1
 384 448 l 1
 128 128 l 1
 256 128 l 1
 448 384 l 1
 576 384 l 1
 768 128 l 1
 896 128 l 1
 640 448 l 1
 640 576 l 1
 896 896 l 1
 768 896 l 1
 576 640 l 1
 448 640 l 1
 256 896 l 1
 128 896 l 1
EndSplineSet
Validated: 1
EndChar

StartChar: Ugrave
Encoding: 217 217 232
Width: 1024
VWidth: 1048
Flags: HW
LayerCount: 2
Fore
SplineSet
0 896 m 1
 128 896 l 1
 448 512 l 1
 768 896 l 1
 896 896 l 1
 512 416 l 1
 512 320 512 224 512 128 c 1
 384 128 l 1
 384 224 384 320 384 416 c 1
 0 896 l 1
0 896 m 1
 0 0 l 1
 1024 0 l 1
 1024 1024 l 1
 0 1024 l 1
 0 896 l 1
EndSplineSet
Validated: 5
EndChar

StartChar: Uacute
Encoding: 218 218 233
Width: 1024
VWidth: 1048
Flags: HW
LayerCount: 2
Fore
SplineSet
0 1024 m 1
 1024 1024 l 5
 1024 0 l 5
 0 0 l 5
 0 1024 l 1
128 896 m 1
 128 768 l 1
 704 768 l 1
 128 256 l 1
 128 128 l 1
 896 128 l 1
 896 256 l 1
 320 256 l 5
 896 768 l 1
 896 896 l 1
 128 896 l 1
EndSplineSet
Validated: 1
EndChar

StartChar: Ucircumflex
Encoding: 219 219 234
Width: 1024
VWidth: 1048
Flags: HW
LayerCount: 2
Fore
SplineSet
512 896 m 1
 512 128 l 1
 768 128 l 1
 768 256 l 1
 640 256 l 1
 640 768 l 1
 768 768 l 1
 768 896 l 1
 512 896 l 1
0 1024 m 1
 1024 1024 l 1
 1024 0 l 1
 0 0 l 1
 0 1024 l 1
EndSplineSet
Validated: 1
EndChar

StartChar: Udieresis
Encoding: 220 220 235
Width: 1024
VWidth: 1048
Flags: HW
LayerCount: 2
Fore
SplineSet
0 1024 m 1
 1024 1024 l 1
 1024 0 l 5
 0 0 l 1
 0 1024 l 1
128 768 m 1
 640 128 l 1
 768 128 l 1
 256 768 l 1
 128 768 l 1
EndSplineSet
Validated: 1
EndChar

StartChar: Yacute
Encoding: 221 221 236
Width: 1024
VWidth: 1048
Flags: HW
LayerCount: 2
Fore
SplineSet
256 896 m 1
 256 768 l 1
 384 768 l 1
 384 256 l 1
 256 256 l 1
 256 128 l 1
 512 128 l 1
 512 896 l 1
 256 896 l 1
0 1024 m 1
 1024 1024 l 1
 1024 0 l 1
 0 0 l 1
 0 1024 l 1
EndSplineSet
Validated: 1
EndChar

StartChar: Thorn
Encoding: 222 222 237
Width: 1024
VWidth: 1048
Flags: HW
LayerCount: 2
Fore
SplineSet
0 1024 m 1
 1024 1024 l 5
 1024 0 l 1
 0 0 l 1
 0 1024 l 1
512 896 m 1
 384 896 l 1
 128 512 l 1
 256 512 l 1
 384 714 l 1
 384 128 l 1
 512 128 l 1
 512 714 l 1
 640 512 l 1
 768 512 l 1
 512 896 l 1
EndSplineSet
Validated: 1
EndChar

StartChar: germandbls
Encoding: 223 223 238
Width: 1024
VWidth: 1048
Flags: HW
LayerCount: 2
Fore
SplineSet
0 1024 m 1
 1024 1024 l 1
 1024 128 l 1
 0 128 l 1
 0 1024 l 1
EndSplineSet
Validated: 1
EndChar

StartChar: agrave
Encoding: 224 224 239
Width: 1024
VWidth: 1048
Flags: HW
LayerCount: 2
Fore
SplineSet
0 1024 m 1
 1024 1024 l 1
 1024 0 l 1
 0 0 l 1
 0 1024 l 1
384 896 m 5
 384 896 256 896 256 768 c 3
 256 718 256 640 256 640 c 1
 128 640 l 1
 128 512 l 1
 256 512 l 1
 256 256 l 1
 128 256 l 1
 128 128 l 1
 896 128 l 1
 896 256 l 1
 384 256 l 1
 384 512 l 1
 640 512 l 1
 640 640 l 1
 384 640 l 1
 384 768 l 1
 768 768 l 1
 768 640 l 1
 896 640 l 1
 896 640 896 718 896 768 c 3
 896 896 768 896 768 896 c 1
 384 896 l 5
EndSplineSet
Validated: 1
EndChar

StartChar: aacute
Encoding: 225 225 240
Width: 1024
VWidth: 1048
Flags: HW
LayerCount: 2
Fore
SplineSet
0 1024 m 1
 1024 1024 l 5
 1024 0 l 5
 0 0 l 5
 0 1024 l 1
256 768 m 1
 256 640 l 1
 640 640 l 1
 640 512 l 1
 256 512 l 1
 256 512 128 512 128 384 c 3
 128 334 128 306 128 256 c 3
 128 128 256 128 256 128 c 1
 896 128 l 1
 896 256 l 1
 768 256 l 1
 768 256 768 490 768 640 c 3
 768 768 640 768 640 768 c 1
 256 768 l 1
256 256 m 1
 256 384 l 1
 640 384 l 1
 640 256 l 1
 256 256 l 1
EndSplineSet
Validated: 1
EndChar

StartChar: acircumflex
Encoding: 226 226 241
Width: 1024
VWidth: 1048
Flags: HW
LayerCount: 2
Fore
SplineSet
0 1024 m 1
 1024 1024 l 1
 1024 0 l 1
 0 0 l 1
 0 1024 l 1
256 896 m 1
 256 128 l 1
 427 128 597 128 768 128 c 1
 768 128 896 128 896 256 c 3
 896 356 896 412 896 512 c 3
 896 640 768 640 768 640 c 1
 384 640 l 1
 384 896 l 1
 256 896 l 1
768 512 m 1
 768 256 l 1
 384 256 l 1
 384 512 l 1
 768 512 l 1
EndSplineSet
Validated: 1
EndChar

StartChar: atilde
Encoding: 227 227 242
Width: 1024
VWidth: 1048
Flags: HW
LayerCount: 2
Fore
SplineSet
0 1024 m 1
 1024 1024 l 1
 1024 0 l 1
 0 0 l 1
 0 1024 l 1
384 768 m 1
 384 768 256 768 256 640 c 11
 256 490 256 406 256 256 c 19
 256 128 384 128 384 128 c 1
 768 128 l 1
 768 256 l 1
 384 256 l 1
 384 640 l 1
 768 640 l 1
 768 768 l 1
 384 768 l 1
EndSplineSet
Validated: 1
EndChar

StartChar: adieresis
Encoding: 228 228 243
Width: 1024
VWidth: 1048
Flags: HW
LayerCount: 2
Fore
SplineSet
0 1024 m 1
 1024 1024 l 5
 1024 0 l 5
 0 0 l 5
 0 1024 l 1
640 896 m 1
 640 640 l 1
 256 640 l 1
 256 640 128 640 128 512 c 11
 128 412 128 356 128 256 c 19
 128 128 256 128 256 128 c 1
 896 128 l 1
 896 256 l 1
 768 256 l 1
 768 896 l 1
 640 896 l 1
256 256 m 1
 256 512 l 1
 640 512 l 1
 640 256 l 1
 256 256 l 1
EndSplineSet
Validated: 1
EndChar

StartChar: aring
Encoding: 229 229 244
Width: 1024
VWidth: 1048
Flags: HW
LayerCount: 2
Fore
SplineSet
0 1024 m 1
 1024 1024 l 5
 1024 0 l 5
 0 0 l 5
 0 1024 l 1
256 256 m 1
 256 384 l 1
 640 384 l 1
 640 384 768 384 768 512 c 11
 768 562 768 590 768 640 c 19
 768 768 640 768 640 768 c 1
 256 768 l 1
 256 768 128 768 128 640 c 11
 128 490 128 406 128 256 c 19
 128 128 256 128 256 128 c 1
 768 128 l 1
 768 256 l 1
 256 256 l 1
640 512 m 1
 256 512 l 1
 256 640 l 1
 640 640 l 1
 640 512 l 1
EndSplineSet
Validated: 1
EndChar

StartChar: ae
Encoding: 230 230 245
Width: 1024
VWidth: 1048
Flags: HW
LayerCount: 2
Fore
SplineSet
0 1024 m 5
 1024 1024 l 5
 1024 0 l 5
 0 0 l 5
 0 1024 l 5
512 768 m 1
 768 768 l 1
 768 896 l 1
 512 896 l 1
 512 896 384 896 384 768 c 11
 384 518 384 128 384 128 c 1
 512 128 l 1
 512 512 l 1
 640 512 l 1
 640 640 l 1
 512 640 l 1
 512 768 l 1
EndSplineSet
Validated: 1
EndChar

StartChar: ccedilla
Encoding: 231 231 246
Width: 1024
VWidth: 1048
Flags: HW
LayerCount: 2
Fore
SplineSet
256 384 m 1
 256 640 l 1
 640 640 l 1
 640 384 l 1
 256 384 l 1
0 1024 m 1
 1024 1024 l 1
 1024 0 l 1
 640 0 l 1
 640 0 768 0 768 128 c 0
 768 378 768 768 768 768 c 1
 768 768 256 768 256 768 c 1
 256 768 128 768 128 640 c 0
 128 540 128 484 128 384 c 0
 128 256 256 256 256 256 c 1
 640 256 l 1
 640 128 l 1
 256 128 l 1
 256 0 l 1
 0 0 l 1
 0 1024 l 1
EndSplineSet
Validated: 1
EndChar

StartChar: egrave
Encoding: 232 232 247
Width: 1024
VWidth: 1048
Flags: HW
LayerCount: 2
Fore
SplineSet
0 1024 m 1
 1024 1024 l 5
 1024 0 l 5
 0 0 l 5
 0 1024 l 1
128 896 m 1
 128 128 l 1
 256 128 l 1
 256 512 l 1
 640 512 l 1
 640 128 l 1
 768 128 l 1
 768 128 768 362 768 512 c 19
 768 640 640 640 640 640 c 1
 256 640 l 1
 256 896 l 1
 128 896 l 1
EndSplineSet
Validated: 1
EndChar

StartChar: eacute
Encoding: 233 233 248
Width: 1024
VWidth: 1048
Flags: HW
LayerCount: 2
Fore
SplineSet
256 640 m 1
 256 512 l 1
 384 512 l 1
 384 256 l 1
 256 256 l 1
 256 128 l 1
 640 128 l 1
 640 256 l 1
 512 256 l 1
 512 640 l 1
 426.666666667 640 341.333333333 640 256 640 c 1
384 896 m 1
 384 768 l 1
 512 768 l 1
 512 896 l 1
 384 896 l 1
0 1024 m 1
 1024 1024 l 1
 1024 0 l 1
 0 0 l 1
 0 1024 l 1
EndSplineSet
Validated: 1
EndChar

StartChar: ecircumflex
Encoding: 234 234 249
Width: 1024
VWidth: 1048
Flags: HW
LayerCount: 2
Fore
SplineSet
0 1024 m 1
 1024 1024 l 1
 1024 0 l 1
 640 0 l 1
 640 0 768 0 768 128 c 0
 768 328 768 640 768 640 c 1
 640 640 l 1
 640 128 l 1
 384 128 l 1
 384 256 l 1
 256 256 l 1
 256 256 256 178 256 128 c 0
 256 0 384 0 384 0 c 1
 0 0 l 1
 0 1024 l 1
640 896 m 1
 640 768 l 1
 768 768 l 1
 768 896 l 1
 640 896 l 1
EndSplineSet
Validated: 1
EndChar

StartChar: edieresis
Encoding: 235 235 250
Width: 1024
VWidth: 1048
Flags: HW
LayerCount: 2
Fore
SplineSet
0 1024 m 5
 1024 1024 l 5
 1024 0 l 5
 0 0 l 5
 0 1024 l 5
256 896 m 1
 256 128 l 1
 384 128 l 1
 384 384 l 1
 448 384 l 1
 640 128 l 1
 768 128 l 1
 512 512 l 1
 640 768 l 1
 512 768 l 1
 448 640 l 1
 384 640 l 1
 384 896 l 1
 256 896 l 1
EndSplineSet
Validated: 1
EndChar

StartChar: igrave
Encoding: 236 236 251
Width: 1024
VWidth: 1048
Flags: HW
LayerCount: 2
Fore
SplineSet
0 1024 m 5
 1024 1024 l 5
 1024 0 l 5
 0 0 l 5
 0 1024 l 5
384 896 m 1
 384 896 384 506 384 256 c 3
 384 128 512 128 512 128 c 1
 768 128 l 1
 768 256 l 1
 512 256 l 1
 512 896 l 1
 384 896 l 1
EndSplineSet
Validated: 1
EndChar

StartChar: iacute
Encoding: 237 237 252
Width: 1024
VWidth: 1048
Flags: HW
LayerCount: 2
Fore
SplineSet
0 1024 m 1
 1024 1024 l 1
 1024 0 l 1
 0 0 l 1
 0 1024 l 1
384 640 m 1
 384 128 l 1
 512 128 l 1
 512 640 l 1
 640 640 l 1
 640 128 l 1
 768 128 l 1
 768 640 l 1
 768 640 768 768 640 768 c 11
 590 768 562 768 512 768 c 19
 448 768 448 704 448 704 c 1
 448 704 448 768 384 768 c 3
 311 768 213 768 128 768 c 1
 128 128 l 1
 256 128 l 1
 256 640 l 1
 384 640 l 1
EndSplineSet
Validated: 1
EndChar

StartChar: icircumflex
Encoding: 238 238 253
Width: 1024
VWidth: 1048
Flags: HW
LayerCount: 2
Fore
SplineSet
0 1024 m 1
 1024 1024 l 1
 1024 0 l 1
 0 0 l 1
 0 1024 l 1
128 768 m 1
 128 128 l 1
 256 128 l 1
 256 640 l 1
 640 640 l 1
 640 128 l 1
 768 128 l 1
 768 640 l 1
 768 640 768 768 640 768 c 3
 512 768 299 768 128 768 c 1
EndSplineSet
Validated: 1
EndChar

StartChar: idieresis
Encoding: 239 239 254
Width: 1024
VWidth: 1048
Flags: HW
LayerCount: 2
Fore
SplineSet
0 1024 m 1
 1024 1024 l 5
 1024 0 l 5
 0 0 l 5
 0 1024 l 1
128 256 m 1
 128 256 128 128 256 128 c 3
 406 128 490 128 640 128 c 3
 768 128 768 256 768 256 c 1
 768 640 l 1
 768 640 768 768 640 768 c 3
 490 768 406 768 256 768 c 3
 128 768 128 640 128 640 c 1
 128 256 l 1
256 256 m 1
 256 640 l 1
 640 640 l 1
 640 256 l 1
 256 256 l 1
EndSplineSet
Validated: 1
EndChar

StartChar: eth
Encoding: 240 240 255
Width: 1024
VWidth: 1048
Flags: HW
LayerCount: 2
Fore
SplineSet
640 640 m 1
 640 384 l 1
 256 384 l 1
 256 640 l 1
 640 640 l 1
0 1024 m 1
 1024 1024 l 1
 1024 0 l 1
 256 0 l 1
 256 256 l 1
 640 256 l 1
 640 256 768 256 768 384 c 0
 768 484 768 540 768 640 c 0
 768 768 640 768 640 768 c 1
 469 768 299 768 128 768 c 1
 128 0 l 1
 0 0 l 1
 0 1024 l 1
EndSplineSet
Validated: 1
EndChar

StartChar: ntilde
Encoding: 241 241 256
Width: 1024
VWidth: 1048
Flags: HW
LayerCount: 2
Fore
SplineSet
256 384 m 1
 256 640 l 1
 640 640 l 1
 640 384 l 1
 256 384 l 1
0 1024 m 1
 1024 1024 l 1
 1024 0 l 1
 896 0 l 1
 896 128 l 1
 768 128 l 1
 768 768 l 1
 597 768 427 768 256 768 c 1
 256 768 128 768 128 640 c 0
 128 540 128 484 128 384 c 0
 128 256 256 256 256 256 c 1
 640 256 l 1
 640 0 l 1
 0 0 l 1
 0 1024 l 1
EndSplineSet
Validated: 1
EndChar

StartChar: ograve
Encoding: 242 242 257
Width: 1024
VWidth: 1048
Flags: HW
LayerCount: 2
Fore
SplineSet
0 1024 m 1
 1024 1024 l 5
 1024 0 l 5
 0 0 l 5
 0 1024 l 1
384 640 m 1
 768 640 l 1
 768 768 l 1
 384 768 l 1
 384 768 256 768 256 640 c 11
 256 440 256 128 256 128 c 1
 384 128 l 1
 384 640 l 1
EndSplineSet
Validated: 1
EndChar

StartChar: oacute
Encoding: 243 243 258
Width: 1024
VWidth: 1048
Flags: HW
LayerCount: 2
Fore
SplineSet
0 1024 m 1
 1024 1024 l 5
 1024 0 l 5
 0 0 l 5
 0 1024 l 1
640 128 m 1
 640 128 768 128 768 256 c 11
 768 306 768 334 768 384 c 19
 768 512 640 512 640 512 c 1
 256 512 l 1
 256 640 l 1
 640 640 l 1
 640 768 l 1
 256 768 l 1
 256 768 128 768 128 640 c 11
 128 590 128 562 128 512 c 19
 128 384 256 384 256 384 c 1
 640 384 l 1
 640 256 l 1
 128 256 l 1
 128 128 l 1
 640 128 l 1
EndSplineSet
Validated: 1
EndChar

StartChar: ocircumflex
Encoding: 244 244 259
Width: 1024
VWidth: 1048
Flags: HW
LayerCount: 2
Fore
SplineSet
0 1024 m 1
 1024 1024 l 5
 1024 0 l 5
 0 0 l 5
 0 1024 l 1
384 896 m 1
 384 768 l 1
 256 768 l 1
 256 640 l 1
 384 640 l 1
 384 640 384 406 384 256 c 19
 384 128 512 128 512 128 c 1
 768 128 l 1
 768 256 l 1
 512 256 l 1
 512 640 l 1
 640 640 l 1
 640 768 l 1
 512 768 l 1
 512 896 l 1
 384 896 l 1
EndSplineSet
Validated: 1
EndChar

StartChar: otilde
Encoding: 245 245 260
Width: 1024
VWidth: 1048
Flags: HW
LayerCount: 2
Fore
SplineSet
0 1024 m 1
 1024 1024 l 1
 1024 0 l 1
 0 0 l 1
 0 1024 l 1
128 768 m 1
 128 768 128 456 128 256 c 19
 128 128 256 128 256 128 c 1
 427 128 597 128 768 128 c 1
 768 768 l 1
 640 768 l 1
 640 256 l 1
 256 256 l 1
 256 768 l 1
 128 768 l 1
EndSplineSet
Validated: 1
EndChar

StartChar: odieresis
Encoding: 246 246 261
Width: 1024
VWidth: 1048
Flags: HW
LayerCount: 2
Fore
SplineSet
0 1024 m 1
 1024 1024 l 5
 1024 0 l 5
 0 0 l 5
 0 1024 l 1
640 768 m 1
 448 256 l 1
 256 768 l 1
 128 768 l 1
 384 128 l 1
 512 128 l 1
 768 768 l 1
 640 768 l 1
EndSplineSet
Validated: 1
EndChar

StartChar: divide
Encoding: 247 247 262
Width: 1024
VWidth: 1048
Flags: HW
LayerCount: 2
Fore
SplineSet
0 1024 m 1
 1024 1024 l 5
 1024 0 l 5
 0 0 l 5
 0 1024 l 1
128 768 m 1
 128 256 l 1
 128 256 128 128 256 128 c 0
 306 128 334 128 384 128 c 0
 448 128 448 192 448 192 c 1
 448 192 448 128 512 128 c 0
 562 128 590 128 640 128 c 0
 768 128 768 256 768 256 c 1
 768 768 l 1
 640 768 l 1
 640 256 l 1
 512 256 l 1
 512 640 l 1
 384 640 l 1
 384 256 l 1
 256 256 l 1
 256 768 l 1
 128 768 l 1
EndSplineSet
Validated: 1
EndChar

StartChar: oslash
Encoding: 248 248 263
Width: 1024
VWidth: 1048
Flags: HW
LayerCount: 2
Fore
SplineSet
0 1024 m 1
 1024 1024 l 1
 1024 0 l 1
 0 0 l 1
 0 1024 l 1
768 128 m 1
 683 235 597 341 512 448 c 1
 768 768 l 1
 640 768 l 1
 447 513 l 1
 256 768 l 1
 128 768 l 1
 384 448 l 1
 128 128 l 1
 256 128 l 1
 448 384 l 1
 640 128 l 1
 768 128 l 1
EndSplineSet
Validated: 1
EndChar

StartChar: ugrave
Encoding: 249 249 264
Width: 1024
VWidth: 1048
Flags: HW
LayerCount: 2
Fore
SplineSet
0 1024 m 1
 1024 1024 l 1
 1024 0 l 1
 640 0 l 1
 640 0 768 0 768 128 c 0
 768 378 768 768 768 768 c 1
 640 768 l 1
 640 384 l 1
 256 384 l 1
 256 768 l 1
 128 768 l 1
 128 768 128 534 128 384 c 0
 128 256 256 256 256 256 c 1
 640 256 l 1
 640 128 l 1
 256 128 l 1
 256 0 l 1
 0 0 l 1
 0 1024 l 1
EndSplineSet
Validated: 1
EndChar

StartChar: uacute
Encoding: 250 250 265
Width: 1024
VWidth: 1048
Flags: HW
LayerCount: 2
Fore
SplineSet
0 1024 m 1
 1024 1024 l 1
 1024 0 l 1
 0 0 l 1
 0 1024 l 1
128 768 m 1
 128 640 l 1
 586 640 l 1
 128 256 l 1
 128 128 l 1
 768 128 l 1
 768 256 l 1
 320 256 l 5
 768 640 l 1
 768 768 l 1
 128 768 l 1
EndSplineSet
Validated: 1
EndChar

StartChar: ucircumflex
Encoding: 251 251 266
Width: 1024
VWidth: 1048
Flags: HW
LayerCount: 2
Fore
SplineSet
0 1024 m 1
 1024 1024 l 5
 1024 0 l 1
 0 0 l 1
 0 1024 l 1
512 896 m 1
 512 810.666666667 512 725.333333333 512 640 c 1
 256 640 l 1
 256 384 l 1
 512 384 l 1
 512 298.666666667 512 213.333333333 512 128 c 1
 896 128 l 1
 896 256 l 1
 640 256 l 1
 640 256 640 334 640 384 c 0
 640 512 512 512 512 512 c 1
 512 512 640 512 640 640 c 0
 640 768 l 1
 896 768 l 1
 896 896 l 1
 512 896 l 1
EndSplineSet
Validated: 1
EndChar

StartChar: udieresis
Encoding: 252 252 267
Width: 1024
VWidth: 1048
Flags: HW
LayerCount: 2
Fore
SplineSet
0 1024 m 1
 1024 1024 l 1
 1024 0 l 5
 0 0 l 1
 0 1024 l 1
512 896 m 1
 512 128 l 1
 640 128 l 1
 640 896 l 1
 512 896 l 1
EndSplineSet
Validated: 1
EndChar

StartChar: yacute
Encoding: 253 253 268
Width: 1024
VWidth: 1048
Flags: HW
LayerCount: 2
Fore
SplineSet
0 1024 m 1
 1024 1024 l 1
 1024 0 l 1
 0 0 l 5
 0 1024 l 1
128 896 m 1
 128 768 l 1
 384 768 l 1
 384 768 384 690 384 640 c 0
 384 512 512 512 512 512 c 1
 512 512 384 512 384 384 c 0
 384 256 l 1
 128 256 l 1
 128 128 l 1
 512 128 l 1
 512 384 l 1
 768 384 l 1
 768 640 l 1
 512 640 l 1
 512 896 l 1
 128 896 l 1
EndSplineSet
Validated: 1
EndChar

StartChar: thorn
Encoding: 254 254 269
Width: 1024
VWidth: 1048
Flags: HW
LayerCount: 2
Fore
SplineSet
0 1024 m 1
 1024 1024 l 5
 1024 0 l 5
 0 0 l 5
 0 1024 l 1
448 768 m 1
 448 768 448 640 576 640 c 3
 651 640 768 640 768 640 c 1
 768 640 896 640 896 768 c 0
 896 818 896 896 896 896 c 1
 768 896 l 1
 768 768 l 1
 576 768 l 1
 576 768 576 896 448 896 c 3
 373 896 256 896 256 896 c 1
 256 896 128 896 128 768 c 0
 128 718 128 640 128 640 c 1
 256 640 l 1
 256 768 l 1
 448 768 l 1
EndSplineSet
Validated: 1
EndChar

StartChar: ydieresis
Encoding: 255 255 270
Width: 1024
VWidth: 1048
Flags: HW
LayerCount: 2
Fore
SplineSet
1024 768 m 2
 1024 1024 768 1024 768 1024 c 1
 1024 1024 l 1
 1024 768 l 2
768 0 m 1
 768 0 1024 0 1024 256 c 2
 1024 0 l 1
 768 0 l 1
0 256 m 2
 0 0 256 0 256 0 c 1
 0 0 l 1
 0 256 l 2
0 768 m 2
 0 1024 l 1
 256 1024 l 1
 256 1024 0 1024 0 768 c 2
256 896 m 1
 768 896 l 1
 768 896 896 896 896 768 c 0
 896 568 896 456 896 256 c 0
 896 128 768 128 768 128 c 1
 256 128 l 1
 256 128 128 128 128 256 c 0
 128 456 128 568 128 768 c 0
 128 896 256 896 256 896 c 1
384 384 m 1
 384 640 l 1
 640 640 l 1
 640 768 l 1
 384 768 l 1
 384 768 256 768 256 640 c 0
 256 540 256 484 256 384 c 0
 256 256 384 256 384 256 c 1
 640 256 l 1
 640 384 l 1
 384 384 l 1
EndSplineSet
Validated: 1
EndChar

StartChar: Euro
Encoding: 276 8364 276
Width: 1024
VWidth: 1048
Flags: HW
LayerCount: 2
Fore
SplineSet
0 1024 m 1
 1024 1024 l 1
 1024 0 l 1
 0 0 l 1
 0 1024 l 1
EndSplineSet
Validated: 1
EndChar

StartChar: quotesinglbase
Encoding: 277 8218 277
Width: 1024
VWidth: 1048
Flags: HW
LayerCount: 2
Fore
SplineSet
512 1024 m 1
 1024 1024 l 1
 1024 683 1024 341 1024 0 c 1
 0 0 l 1
 0 512 l 1
 512 512 l 1
 512 1024 l 1
EndSplineSet
Validated: 1
EndChar

StartChar: florin
Encoding: 278 402 278
Width: 1024
VWidth: 1048
Flags: HW
LayerCount: 2
Fore
SplineSet
0 512 m 1
 1024 512 l 1
 1024 0 l 1
 0 0 l 1
 0 512 l 1
EndSplineSet
Validated: 1
EndChar

StartChar: quotedblbase
Encoding: 279 8222 279
Width: 1024
VWidth: 1048
Flags: HW
LayerCount: 2
Fore
SplineSet
0 1024 m 1
 341 1024 683 1024 1024 1024 c 1
 1024 512 l 1
 512 512 l 1
 512 0 l 1
 0 0 l 1
 0 1024 l 1
EndSplineSet
Validated: 1
EndChar

StartChar: ellipsis
Encoding: 280 8230 280
Width: 1024
VWidth: 1048
Flags: HW
LayerCount: 2
Fore
SplineSet
0 1024 m 1
 512 1024 l 1
 512 0 l 1
 0 0 l 1
 0 1024 l 1
EndSplineSet
Validated: 1
EndChar

StartChar: dagger
Encoding: 281 8224 281
Width: 1024
VWidth: 1048
Flags: HW
LayerCount: 2
Fore
SplineSet
512 512 m 1
 512 0 l 1
 0 0 l 1
 0 512 l 1
 512 512 l 1
512 512 m 1
 512 1024 l 1
 1024 1024 l 1
 1024 512 l 1
 512 512 l 1
EndSplineSet
Validated: 5
EndChar

StartChar: daggerdbl
Encoding: 282 8225 282
Width: 1024
VWidth: 1048
Flags: HW
LayerCount: 2
Fore
SplineSet
0 512 m 1
 512 512 l 1
 512 0 l 1
 0 0 l 1
 0 512 l 1
EndSplineSet
Validated: 1
EndChar

StartChar: uni20C6
Encoding: 283 8390 283
Width: 1024
VWidth: 1048
Flags: HW
LayerCount: 2
Fore
SplineSet
0 1024 m 1
 1024 1024 l 1
 1024 0 l 1
 0 0 l 1
 0 1024 l 1
EndSplineSet
Validated: 1
EndChar

StartChar: perthousand
Encoding: 284 8240 284
Width: 1024
VWidth: 1048
Flags: HW
LayerCount: 2
Fore
SplineSet
0 1024 m 1
 512 1024 l 1
 512 512 l 1
 1024 512 l 1
 1024 0 l 1
 0 0 l 1
 -0 341 0 683 0 1024 c 1
EndSplineSet
Validated: 1
EndChar

StartChar: Scaron
Encoding: 285 352 285
Width: 1024
VWidth: 1048
Flags: HW
LayerCount: 2
Fore
SplineSet
512 1024 m 1
 1024 1024 l 1
 1024 683 1024 341 1024 0 c 1
 0 0 l 1
 0 512 l 1
 512 512 l 1
 512 1024 l 1
EndSplineSet
Validated: 1
EndChar

StartChar: guilsinglleft
Encoding: 286 8249 286
Width: 1024
VWidth: 1048
Flags: HW
LayerCount: 2
Fore
SplineSet
0 512 m 1
 1024 512 l 1
 1024 0 l 1
 0 0 l 1
 0 512 l 1
EndSplineSet
Validated: 1
EndChar

StartChar: uni0156
Encoding: 287 342 287
Width: 1024
VWidth: 1048
Flags: HW
LayerCount: 2
Fore
SplineSet
0 1024 m 1
 341 1024 683 1024 1024 1024 c 1
 1024 512 l 1
 512 512 l 1
 512 0 l 1
 0 0 l 1
 0 1024 l 1
EndSplineSet
Validated: 1
EndChar

StartChar: Zcaron
Encoding: 288 381 288
Width: 1024
VWidth: 1048
Flags: HW
LayerCount: 2
Fore
SplineSet
512 512 m 1
 512 0 l 1
 0 0 l 1
 0 512 l 1
 512 512 l 1
512 512 m 1
 512 1024 l 1
 1024 1024 l 1
 1024 512 l 1
 512 512 l 1
EndSplineSet
Validated: 5
EndChar

StartChar: zcaron
Encoding: 289 382 289
Width: 1024
VWidth: 1048
Flags: HW
LayerCount: 2
Fore
SplineSet
512 512 m 1
 512 0 l 1
 0 0 l 1
 0 512 l 1
 512 512 l 1
512 512 m 1
 512 1024 l 1
 1024 1024 l 1
 1024 512 l 1
 512 512 l 1
EndSplineSet
Validated: 5
EndChar

StartChar: Ydieresis
Encoding: 290 376 290
Width: 1024
VWidth: 1048
Flags: HW
LayerCount: 2
Fore
SplineSet
0 512 m 1
 512 512 l 1
 512 0 l 1
 0 0 l 1
 0 512 l 1
EndSplineSet
Validated: 1
EndChar

StartChar: quoteleft
Encoding: 291 8216 291
Width: 1024
VWidth: 1048
Flags: HW
LayerCount: 2
Fore
SplineSet
0 1024 m 1
 512 1024 l 1
 512 512 l 1
 1024 512 l 1
 1024 0 l 1
 0 0 l 1
 -0 341 0 683 0 1024 c 1
EndSplineSet
Validated: 1
EndChar

StartChar: quoteright
Encoding: 292 8217 292
Width: 1024
VWidth: 1048
Flags: HW
LayerCount: 2
Fore
SplineSet
512 1024 m 1
 1024 1024 l 1
 1024 683 1024 341 1024 0 c 1
 0 0 l 1
 0 512 l 1
 512 512 l 1
 512 1024 l 1
EndSplineSet
Validated: 1
EndChar

StartChar: quotedblleft
Encoding: 293 8220 293
Width: 1024
VWidth: 1048
Flags: HW
LayerCount: 2
Fore
SplineSet
0 512 m 1
 1024 512 l 1
 1024 0 l 1
 0 0 l 1
 0 512 l 1
EndSplineSet
Validated: 1
EndChar

StartChar: quotedblright
Encoding: 294 8221 294
Width: 1024
VWidth: 1048
Flags: HW
LayerCount: 2
Fore
SplineSet
0 1024 m 1
 341 1024 683 1024 1024 1024 c 1
 1024 512 l 1
 512 512 l 1
 512 0 l 1
 0 0 l 1
 0 1024 l 1
EndSplineSet
Validated: 1
EndChar

StartChar: bullet
Encoding: 295 8226 295
Width: 1024
VWidth: 1048
Flags: HW
LayerCount: 2
Fore
SplineSet
0 1024 m 1
 512 1024 l 1
 512 0 l 1
 0 0 l 1
 0 1024 l 1
EndSplineSet
Validated: 1
EndChar

StartChar: endash
Encoding: 296 8211 296
Width: 1024
VWidth: 1048
Flags: HW
LayerCount: 2
Fore
SplineSet
512 512 m 1
 512 0 l 1
 0 0 l 1
 0 512 l 1
 512 512 l 1
512 512 m 1
 512 1024 l 1
 1024 1024 l 1
 1024 512 l 1
 512 512 l 1
EndSplineSet
Validated: 5
EndChar

StartChar: emdash
Encoding: 297 8212 297
Width: 1024
VWidth: 1048
Flags: HW
LayerCount: 2
Fore
SplineSet
0 512 m 1
 512 512 l 1
 512 0 l 1
 0 0 l 1
 0 512 l 1
EndSplineSet
Validated: 1
EndChar

StartChar: tilde
Encoding: 298 732 298
Width: 1024
VWidth: 1048
Flags: HW
LayerCount: 2
Fore
SplineSet
0 1024 m 1
 1024 1024 l 1
 1024 0 l 1
 0 0 l 1
 0 1024 l 1
EndSplineSet
Validated: 1
EndChar

StartChar: trademark
Encoding: 299 8482 299
Width: 1024
VWidth: 1048
Flags: HW
LayerCount: 2
Fore
SplineSet
0 1024 m 1
 512 1024 l 1
 512 512 l 1
 1024 512 l 1
 1024 0 l 1
 0 0 l 1
 -0 341 0 683 0 1024 c 1
EndSplineSet
Validated: 1
EndChar

StartChar: scaron
Encoding: 300 353 300
Width: 1024
VWidth: 1048
Flags: HW
LayerCount: 2
Fore
SplineSet
512 1024 m 1
 1024 1024 l 1
 1024 683 1024 341 1024 0 c 1
 0 0 l 1
 0 512 l 1
 512 512 l 1
 512 1024 l 1
EndSplineSet
Validated: 1
EndChar

StartChar: guilsinglright
Encoding: 301 8250 301
Width: 1024
VWidth: 1048
Flags: HW
LayerCount: 2
Fore
SplineSet
0 512 m 1
 1024 512 l 1
 1024 0 l 1
 0 0 l 1
 0 512 l 1
EndSplineSet
Validated: 1
EndChar

StartChar: oe
Encoding: 302 339 302
Width: 1024
VWidth: 1048
Flags: HW
LayerCount: 2
Fore
SplineSet
0 1024 m 1
 341 1024 683 1024 1024 1024 c 1
 1024 512 l 1
 512 512 l 1
 512 0 l 1
 0 0 l 1
 0 1024 l 1
EndSplineSet
Validated: 1
EndChar
